<svg width="2500" height="2500" viewBox="0 0 2500 2500" fill="none" xmlns="http://www.w3.org/2000/svg">
<path d="M2500 0H0V2500H2500V0Z" fill="#AAE0FF"/>
<path d="M1252.5 1732.28C1251.05 1732.29 1249.66 1731.73 1248.63 1730.72C1247.6 1729.7 1247.02 1728.32 1247.01 1726.88C1246.99 1725.43 1247.56 1724.04 1248.57 1723.01C1249.58 1721.98 1250.96 1721.39 1252.41 1721.38C1257.79 1721.29 1263.23 1721.12 1268.58 1720.9C1269.3 1720.86 1270.02 1720.97 1270.69 1721.21C1271.37 1721.46 1271.99 1721.83 1272.52 1722.32C1273.05 1722.8 1273.48 1723.39 1273.79 1724.04C1274.09 1724.69 1274.26 1725.4 1274.29 1726.11C1274.33 1726.83 1274.21 1727.55 1273.96 1728.22C1273.72 1728.9 1273.34 1729.52 1272.85 1730.05C1272.36 1730.57 1271.77 1731 1271.12 1731.3C1270.47 1731.6 1269.76 1731.77 1269.04 1731.79C1263.61 1732.02 1258.04 1732.18 1252.6 1732.28H1252.5ZM1220.73 1732.11H1220.57C1215.09 1731.95 1209.57 1731.72 1204.1 1731.43C1202.69 1731.31 1201.37 1730.65 1200.44 1729.58C1199.51 1728.51 1199.03 1727.12 1199.1 1725.71C1199.18 1724.29 1199.81 1722.96 1200.85 1722C1201.89 1721.04 1203.26 1720.52 1204.68 1720.55C1210.04 1720.83 1215.49 1721.06 1220.88 1721.22C1222.33 1721.24 1223.7 1721.83 1224.71 1722.87C1225.72 1723.91 1226.27 1725.3 1226.26 1726.75C1226.24 1728.19 1225.64 1729.57 1224.61 1730.58C1223.57 1731.59 1222.18 1732.14 1220.73 1732.12V1732.11ZM1300.52 1729.69C1299.13 1729.67 1297.8 1729.12 1296.8 1728.15C1295.8 1727.19 1295.21 1725.87 1295.15 1724.49C1295.09 1723.1 1295.56 1721.74 1296.47 1720.68C1297.37 1719.63 1298.65 1718.96 1300.03 1718.82C1305.39 1718.33 1310.82 1717.82 1316.16 1717.16C1317.6 1716.99 1319.04 1717.41 1320.17 1718.3C1321.3 1719.2 1322.03 1720.51 1322.2 1721.95C1322.37 1723.39 1321.95 1724.83 1321.06 1725.96C1320.16 1727.1 1318.85 1727.82 1317.41 1727.99C1311.98 1728.61 1306.41 1729.18 1301.01 1729.67C1300.85 1729.69 1300.68 1729.69 1300.52 1729.69ZM1172.72 1728.97C1172.53 1728.98 1172.35 1728.98 1172.16 1728.97C1166.72 1728.41 1161.16 1727.78 1155.79 1727.1C1155.08 1727.01 1154.39 1726.78 1153.77 1726.43C1153.15 1726.07 1152.6 1725.6 1152.17 1725.03C1151.73 1724.47 1151.4 1723.82 1151.21 1723.13C1151.03 1722.44 1150.97 1721.72 1151.06 1721.01C1151.15 1720.3 1151.38 1719.61 1151.74 1718.99C1152.09 1718.37 1152.57 1717.82 1153.13 1717.38C1153.7 1716.94 1154.35 1716.62 1155.04 1716.43C1155.73 1716.24 1156.45 1716.19 1157.16 1716.28C1162.49 1716.96 1167.91 1717.58 1173.26 1718.12C1174.65 1718.27 1175.92 1718.94 1176.83 1720C1177.74 1721.05 1178.2 1722.42 1178.13 1723.81C1178.06 1725.2 1177.46 1726.51 1176.46 1727.48C1175.45 1728.44 1174.11 1728.98 1172.72 1728.99V1728.97ZM1348.25 1723.64C1346.88 1723.64 1345.56 1723.13 1344.55 1722.2C1343.54 1721.27 1342.92 1720 1342.81 1718.63C1342.7 1717.27 1343.11 1715.91 1343.95 1714.83C1344.8 1713.75 1346.02 1713.03 1347.37 1712.81C1352.69 1711.94 1358.06 1710.99 1363.37 1709.99C1364.08 1709.84 1364.82 1709.82 1365.54 1709.96C1366.25 1710.09 1366.94 1710.37 1367.54 1710.77C1368.15 1711.18 1368.67 1711.7 1369.07 1712.31C1369.48 1712.92 1369.75 1713.6 1369.89 1714.32C1370.02 1715.03 1370.01 1715.77 1369.85 1716.48C1369.7 1717.19 1369.4 1717.87 1368.98 1718.46C1368.56 1719.06 1368.02 1719.56 1367.4 1719.95C1366.78 1720.33 1366.09 1720.59 1365.37 1720.7C1360.01 1721.7 1354.55 1722.7 1349.14 1723.57C1348.85 1723.62 1348.55 1723.64 1348.25 1723.64ZM1125.06 1722.38C1124.72 1722.38 1124.39 1722.35 1124.06 1722.29C1118.66 1721.29 1113.21 1720.29 1107.86 1719.29C1107.16 1719.15 1106.49 1718.87 1105.9 1718.47C1105.3 1718.07 1104.79 1717.56 1104.4 1716.96C1104 1716.37 1103.72 1715.7 1103.59 1715C1103.45 1714.3 1103.45 1713.57 1103.59 1712.87C1103.73 1712.17 1104.01 1711.5 1104.41 1710.91C1104.81 1710.31 1105.32 1709.8 1105.92 1709.41C1106.51 1709.01 1107.18 1708.73 1107.88 1708.6C1108.59 1708.46 1109.31 1708.46 1110.01 1708.6C1115.28 1709.66 1120.64 1710.67 1125.95 1711.6C1127.3 1711.83 1128.5 1712.56 1129.34 1713.65C1130.17 1714.73 1130.57 1716.08 1130.45 1717.44C1130.33 1718.8 1129.71 1720.07 1128.7 1720.99C1127.69 1721.91 1126.38 1722.42 1125.01 1722.42L1125.06 1722.38ZM1395.42 1714.12C1394.09 1714.12 1392.8 1713.63 1391.8 1712.74C1390.8 1711.86 1390.16 1710.64 1390.01 1709.31C1389.85 1707.98 1390.19 1706.65 1390.95 1705.55C1391.71 1704.46 1392.85 1703.68 1394.15 1703.37C1399.38 1702.11 1404.67 1700.77 1409.86 1699.37C1410.56 1699.17 1411.28 1699.11 1412 1699.2C1412.72 1699.29 1413.41 1699.52 1414.04 1699.87C1414.67 1700.23 1415.22 1700.71 1415.67 1701.28C1416.11 1701.85 1416.43 1702.51 1416.62 1703.21C1416.81 1703.91 1416.85 1704.63 1416.75 1705.35C1416.65 1706.07 1416.41 1706.76 1416.05 1707.38C1415.68 1708 1415.19 1708.55 1414.61 1708.98C1414.03 1709.41 1413.37 1709.73 1412.67 1709.9C1407.39 1711.31 1402.01 1712.67 1396.67 1713.9C1396.26 1714.02 1395.84 1714.1 1395.42 1714.12ZM1078 1712.32C1077.55 1712.32 1077.1 1712.26 1076.66 1712.15C1071.37 1710.81 1066.01 1709.39 1060.73 1707.92C1059.34 1707.53 1058.16 1706.61 1057.45 1705.35C1056.74 1704.09 1056.56 1702.6 1056.94 1701.21C1057.33 1699.81 1058.26 1698.63 1059.52 1697.92C1060.78 1697.21 1062.27 1697.03 1063.66 1697.42C1068.85 1698.87 1074.12 1700.27 1079.33 1701.58C1080.62 1701.9 1081.76 1702.68 1082.51 1703.78C1083.27 1704.88 1083.59 1706.22 1083.43 1707.54C1083.26 1708.86 1082.62 1710.08 1081.62 1710.96C1080.62 1711.84 1079.33 1712.33 1078 1712.32ZM1441.76 1701.18C1440.46 1701.18 1439.19 1700.72 1438.2 1699.87C1437.21 1699.03 1436.56 1697.85 1436.36 1696.56C1436.16 1695.28 1436.43 1693.96 1437.11 1692.85C1437.8 1691.74 1438.87 1690.92 1440.11 1690.53C1445.22 1688.9 1450.39 1687.18 1455.49 1685.41C1456.17 1685.18 1456.88 1685.08 1457.6 1685.12C1458.31 1685.16 1459.01 1685.34 1459.65 1685.66C1460.3 1685.97 1460.87 1686.41 1461.35 1686.94C1461.83 1687.48 1462.19 1688.1 1462.43 1688.78C1462.66 1689.45 1462.76 1690.17 1462.72 1690.88C1462.67 1691.6 1462.49 1692.3 1462.18 1692.94C1461.87 1693.58 1461.43 1694.16 1460.89 1694.64C1460.36 1695.11 1459.74 1695.48 1459.06 1695.71C1453.88 1697.51 1448.62 1699.26 1443.42 1700.92C1442.88 1701.09 1442.32 1701.18 1441.76 1701.18ZM1031.76 1698.84C1031.18 1698.84 1030.6 1698.74 1030.05 1698.56C1024.83 1696.83 1019.57 1695.01 1014.41 1693.16C1013.05 1692.67 1011.94 1691.66 1011.32 1690.35C1010.71 1689.04 1010.64 1687.54 1011.13 1686.18C1011.62 1684.82 1012.63 1683.71 1013.94 1683.09C1015.25 1682.48 1016.75 1682.41 1018.11 1682.9C1023.18 1684.72 1028.35 1686.51 1033.48 1688.22C1034.71 1688.63 1035.75 1689.46 1036.42 1690.57C1037.09 1691.68 1037.34 1692.98 1037.14 1694.26C1036.93 1695.54 1036.27 1696.7 1035.29 1697.54C1034.3 1698.38 1033.05 1698.84 1031.76 1698.84ZM1487 1684.84C1485.74 1684.83 1484.51 1684.39 1483.54 1683.58C1482.57 1682.77 1481.91 1681.65 1481.67 1680.41C1481.43 1679.17 1481.64 1677.88 1482.24 1676.77C1482.85 1675.66 1483.83 1674.8 1485 1674.33C1490 1672.33 1495 1670.25 1499.91 1668.12C1500.57 1667.81 1501.29 1667.63 1502.02 1667.6C1502.75 1667.57 1503.48 1667.69 1504.17 1667.94C1504.85 1668.2 1505.48 1668.59 1506.01 1669.1C1506.54 1669.6 1506.96 1670.21 1507.25 1670.88C1507.54 1671.55 1507.69 1672.28 1507.7 1673.01C1507.7 1673.74 1507.56 1674.47 1507.28 1675.14C1506.99 1675.82 1506.58 1676.43 1506.06 1676.94C1505.53 1677.45 1504.91 1677.85 1504.23 1678.12C1499.23 1680.28 1494.12 1682.41 1489.07 1684.44C1488.41 1684.71 1487.71 1684.86 1487 1684.87V1684.84ZM986.6 1682C985.883 1682 985.173 1681.85 984.51 1681.58C979.51 1679.48 974.35 1677.28 969.33 1675.04C968.004 1674.45 966.966 1673.36 966.445 1672.01C965.923 1670.65 965.961 1669.15 966.55 1667.82C967.139 1666.49 968.23 1665.46 969.584 1664.94C970.938 1664.41 972.444 1664.45 973.77 1665.04C978.7 1667.23 983.77 1669.4 988.7 1671.46C989.869 1671.94 990.835 1672.81 991.431 1673.93C992.028 1675.04 992.218 1676.33 991.97 1677.57C991.722 1678.81 991.051 1679.92 990.071 1680.72C989.091 1681.52 987.864 1681.96 986.6 1681.95V1682ZM1530.89 1665.38C1529.66 1665.38 1528.46 1664.97 1527.49 1664.2C1526.52 1663.44 1525.85 1662.36 1525.57 1661.16C1525.29 1659.96 1525.43 1658.7 1525.96 1657.58C1526.49 1656.47 1527.38 1655.57 1528.49 1655.03C1533.32 1652.67 1538.17 1650.22 1542.92 1647.74C1544.19 1647.16 1545.64 1647.09 1546.96 1647.55C1548.28 1648.01 1549.38 1648.96 1550.02 1650.2C1550.66 1651.44 1550.8 1652.88 1550.41 1654.22C1550.02 1655.57 1549.13 1656.71 1547.92 1657.41C1543.1 1659.93 1538.16 1662.41 1533.25 1664.82C1532.51 1665.17 1531.71 1665.35 1530.89 1665.35V1665.38ZM942.79 1661.87C941.938 1661.87 941.098 1661.67 940.34 1661.28C935.44 1658.81 930.51 1656.28 925.68 1653.66C925.049 1653.32 924.491 1652.86 924.037 1652.31C923.584 1651.76 923.244 1651.12 923.037 1650.43C922.618 1649.05 922.767 1647.55 923.45 1646.28C924.133 1645.01 925.294 1644.06 926.678 1643.64C928.062 1643.22 929.556 1643.37 930.83 1644.05C935.58 1646.6 940.43 1649.12 945.25 1651.55C946.347 1652.1 947.226 1653.01 947.745 1654.12C948.263 1655.23 948.39 1656.49 948.105 1657.68C947.82 1658.88 947.14 1659.94 946.176 1660.7C945.211 1661.46 944.018 1661.87 942.79 1661.87ZM1573.22 1642.7C1572.02 1642.7 1570.86 1642.31 1569.9 1641.58C1568.95 1640.85 1568.26 1639.83 1567.95 1638.67C1567.64 1637.52 1567.72 1636.29 1568.17 1635.18C1568.63 1634.07 1569.43 1633.14 1570.47 1632.54C1575.11 1629.84 1579.78 1627.03 1584.35 1624.22C1585.58 1623.46 1587.06 1623.22 1588.47 1623.56C1589.88 1623.89 1591.09 1624.77 1591.85 1626C1592.61 1627.23 1592.85 1628.71 1592.51 1630.12C1592.18 1631.53 1591.3 1632.74 1590.07 1633.5C1585.43 1636.36 1580.69 1639.21 1575.97 1641.96C1575.13 1642.43 1574.18 1642.68 1573.22 1642.67V1642.7ZM900.58 1638.6C899.595 1638.6 898.628 1638.33 897.78 1637.83C893.08 1635 888.35 1632.09 883.78 1629.16C882.559 1628.39 881.694 1627.16 881.378 1625.75C881.061 1624.34 881.317 1622.86 882.09 1621.64C882.863 1620.42 884.09 1619.55 885.5 1619.24C886.91 1618.92 888.389 1619.18 889.61 1619.95C894.15 1622.83 898.8 1625.7 903.43 1628.48C904.451 1629.09 905.242 1630.03 905.683 1631.13C906.124 1632.24 906.191 1633.46 905.872 1634.61C905.553 1635.76 904.867 1636.77 903.918 1637.49C902.97 1638.21 901.811 1638.6 900.62 1638.6H900.58ZM1613.83 1617C1612.65 1617.02 1611.5 1616.66 1610.54 1615.96C1609.59 1615.27 1608.88 1614.29 1608.53 1613.16C1608.18 1612.03 1608.21 1610.82 1608.61 1609.71C1609.01 1608.6 1609.75 1607.65 1610.74 1607C1615.17 1604 1619.62 1600.83 1623.98 1597.68C1624.56 1597.26 1625.22 1596.96 1625.91 1596.8C1626.61 1596.63 1627.33 1596.61 1628.04 1596.72C1628.75 1596.83 1629.42 1597.09 1630.03 1597.46C1630.64 1597.84 1631.17 1598.33 1631.59 1598.91C1632.01 1599.49 1632.31 1600.15 1632.47 1600.84C1632.64 1601.54 1632.67 1602.26 1632.55 1602.97C1632.44 1603.68 1632.18 1604.35 1631.81 1604.96C1631.43 1605.57 1630.94 1606.1 1630.36 1606.52C1625.93 1609.72 1621.36 1612.91 1616.9 1615.99C1616 1616.63 1614.93 1616.99 1613.83 1617ZM860.2 1612.34C859.079 1612.34 857.985 1611.99 857.07 1611.34C852.6 1608.19 848.07 1604.95 843.7 1601.68C843.099 1601.26 842.588 1600.73 842.197 1600.11C841.806 1599.5 841.543 1598.81 841.424 1598.09C841.305 1597.37 841.333 1596.63 841.504 1595.92C841.676 1595.21 841.989 1594.54 842.424 1593.95C842.86 1593.37 843.409 1592.87 844.038 1592.5C844.668 1592.13 845.366 1591.89 846.091 1591.8C846.815 1591.7 847.551 1591.75 848.256 1591.95C848.96 1592.14 849.618 1592.48 850.19 1592.93C854.51 1596.13 858.94 1599.33 863.34 1602.43C864.289 1603.1 865 1604.05 865.371 1605.15C865.742 1606.24 865.753 1607.43 865.403 1608.54C865.053 1609.64 864.36 1610.61 863.424 1611.29C862.488 1611.97 861.359 1612.34 860.2 1612.34ZM1652.47 1588.4C1651.34 1588.4 1650.24 1588.05 1649.32 1587.4C1648.39 1586.74 1647.7 1585.82 1647.33 1584.75C1646.95 1583.69 1646.92 1582.53 1647.23 1581.44C1647.54 1580.36 1648.19 1579.4 1649.07 1578.69C1653.28 1575.33 1657.5 1571.88 1661.61 1568.43C1662.73 1567.59 1664.12 1567.22 1665.51 1567.38C1666.9 1567.54 1668.17 1568.23 1669.07 1569.3C1669.96 1570.37 1670.42 1571.74 1670.33 1573.13C1670.25 1574.53 1669.63 1575.84 1668.61 1576.79C1664.43 1580.29 1660.14 1583.79 1655.86 1587.21C1654.89 1587.97 1653.7 1588.38 1652.47 1588.37V1588.4ZM821.85 1583.22C820.592 1583.22 819.373 1582.79 818.4 1581.99C814.16 1578.52 809.91 1574.99 805.77 1571.39C805.215 1570.93 804.757 1570.36 804.423 1569.72C804.09 1569.08 803.887 1568.37 803.828 1567.65C803.768 1566.93 803.852 1566.21 804.076 1565.52C804.299 1564.83 804.657 1564.2 805.129 1563.65C805.6 1563.1 806.176 1562.65 806.823 1562.33C807.47 1562.01 808.174 1561.81 808.896 1561.77C809.617 1561.72 810.341 1561.81 811.025 1562.05C811.709 1562.28 812.34 1562.65 812.88 1563.13C816.95 1566.63 821.13 1570.13 825.3 1573.55C826.171 1574.26 826.8 1575.23 827.102 1576.31C827.403 1577.39 827.362 1578.54 826.984 1579.6C826.606 1580.66 825.91 1581.58 824.991 1582.23C824.072 1582.87 822.975 1583.22 821.85 1583.22ZM1689 1557C1687.9 1557 1686.83 1556.67 1685.93 1556.05C1685.02 1555.43 1684.33 1554.56 1683.93 1553.54C1683.53 1552.52 1683.44 1551.4 1683.69 1550.33C1683.93 1549.26 1684.5 1548.29 1685.3 1547.55C1689.3 1543.9 1693.21 1540.15 1697.07 1536.41C1697.58 1535.9 1698.19 1535.49 1698.86 1535.21C1699.53 1534.93 1700.25 1534.79 1700.97 1534.79C1701.7 1534.8 1702.41 1534.94 1703.08 1535.23C1703.75 1535.51 1704.35 1535.93 1704.86 1536.45C1705.36 1536.97 1705.76 1537.58 1706.02 1538.26C1706.28 1538.93 1706.41 1539.66 1706.39 1540.38C1706.37 1541.1 1706.21 1541.82 1705.91 1542.48C1705.62 1543.14 1705.19 1543.74 1704.66 1544.23C1700.74 1548.04 1696.66 1551.84 1692.66 1555.56C1691.66 1556.48 1690.36 1557 1689 1557ZM785.75 1551.35C784.357 1551.35 783.018 1550.81 782.01 1549.85C778.01 1546.1 774.01 1542.24 770.18 1538.38C769.651 1537.88 769.228 1537.28 768.935 1536.62C768.642 1535.95 768.485 1535.23 768.474 1534.51C768.462 1533.78 768.596 1533.06 768.868 1532.38C769.14 1531.71 769.544 1531.09 770.057 1530.58C770.569 1530.06 771.18 1529.65 771.853 1529.38C772.525 1529.1 773.247 1528.96 773.974 1528.97C774.701 1528.98 775.419 1529.13 776.087 1529.42C776.754 1529.71 777.357 1530.13 777.86 1530.65C781.68 1534.45 785.6 1538.24 789.5 1541.94C790.293 1542.69 790.843 1543.66 791.078 1544.73C791.313 1545.79 791.222 1546.9 790.818 1547.92C790.414 1548.93 789.715 1549.8 788.812 1550.41C787.908 1551.03 786.841 1551.35 785.75 1551.35ZM1723.14 1523.11C1722.08 1523.11 1721.04 1522.8 1720.15 1522.22C1719.26 1521.64 1718.56 1520.81 1718.13 1519.83C1717.71 1518.86 1717.58 1517.78 1717.75 1516.73C1717.93 1515.68 1718.42 1514.71 1719.14 1513.93C1722.83 1510 1726.51 1505.93 1730.08 1501.93C1730.56 1501.39 1731.13 1500.95 1731.78 1500.64C1732.42 1500.32 1733.13 1500.14 1733.84 1500.09C1734.56 1500.05 1735.28 1500.15 1735.96 1500.38C1736.64 1500.62 1737.26 1500.99 1737.8 1501.47C1738.34 1501.95 1738.77 1502.53 1739.08 1503.17C1739.39 1503.82 1739.57 1504.53 1739.61 1505.24C1739.65 1505.96 1739.55 1506.68 1739.31 1507.36C1739.06 1508.03 1738.69 1508.66 1738.21 1509.19C1734.58 1513.26 1730.84 1517.35 1727.09 1521.35C1726.59 1521.91 1725.98 1522.36 1725.29 1522.67C1724.6 1522.98 1723.86 1523.14 1723.11 1523.15L1723.14 1523.11ZM752 1517.07C751.246 1517.07 750.502 1516.91 749.813 1516.6C749.124 1516.29 748.507 1515.85 748 1515.29C744.32 1511.29 740.63 1507.13 737 1503C736.504 1502.46 736.12 1501.84 735.871 1501.15C735.623 1500.46 735.515 1499.73 735.555 1499C735.594 1498.27 735.779 1497.56 736.1 1496.9C736.42 1496.25 736.869 1495.66 737.42 1495.18C737.971 1494.7 738.613 1494.34 739.307 1494.11C740.001 1493.89 740.734 1493.8 741.461 1493.87C742.189 1493.93 742.896 1494.14 743.542 1494.48C744.188 1494.82 744.758 1495.28 745.22 1495.85C748.76 1499.91 752.39 1503.98 756.01 1507.94C756.493 1508.47 756.866 1509.09 757.11 1509.76C757.354 1510.43 757.462 1511.15 757.43 1511.86C757.397 1512.58 757.224 1513.28 756.921 1513.93C756.617 1514.58 756.189 1515.16 755.66 1515.64C754.663 1516.56 753.356 1517.07 752 1517.07ZM1754.74 1486.86C1753.71 1486.86 1752.71 1486.56 1751.84 1486.01C1750.97 1485.46 1750.27 1484.68 1749.83 1483.75C1749.39 1482.83 1749.21 1481.79 1749.33 1480.77C1749.45 1479.75 1749.86 1478.78 1750.5 1477.98C1753.89 1473.79 1757.27 1469.51 1760.56 1465.25C1761 1464.68 1761.54 1464.21 1762.16 1463.85C1762.78 1463.5 1763.46 1463.26 1764.17 1463.17C1764.88 1463.08 1765.6 1463.13 1766.29 1463.31C1766.98 1463.5 1767.63 1463.82 1768.2 1464.26C1768.76 1464.69 1769.24 1465.23 1769.59 1465.85C1769.95 1466.47 1770.18 1467.16 1770.27 1467.87C1770.37 1468.58 1770.32 1469.3 1770.13 1469.99C1769.95 1470.68 1769.63 1471.32 1769.19 1471.89C1765.86 1476.23 1762.42 1480.58 1758.97 1484.84C1758.46 1485.47 1757.82 1485.98 1757.08 1486.33C1756.35 1486.68 1755.55 1486.86 1754.74 1486.86ZM720.85 1480.42C720.025 1480.42 719.212 1480.23 718.47 1479.87C717.728 1479.51 717.079 1478.99 716.57 1478.34C713.19 1474.05 709.81 1469.66 706.57 1465.34C706.14 1464.77 705.827 1464.12 705.649 1463.42C705.47 1462.73 705.43 1462.01 705.531 1461.3C705.632 1460.59 705.871 1459.91 706.236 1459.29C706.6 1458.67 707.082 1458.14 707.655 1457.71C708.228 1457.28 708.879 1456.96 709.573 1456.78C710.266 1456.61 710.988 1456.57 711.697 1456.67C712.406 1456.77 713.088 1457.01 713.705 1457.37C714.321 1457.74 714.86 1458.22 715.29 1458.79C718.52 1463.09 721.84 1467.41 725.17 1471.63C725.801 1472.44 726.194 1473.4 726.303 1474.42C726.412 1475.43 726.233 1476.46 725.787 1477.38C725.341 1478.3 724.646 1479.08 723.78 1479.62C722.914 1480.17 721.913 1480.46 720.89 1480.46L720.85 1480.42ZM1783.66 1448.36C1782.54 1448.36 1781.46 1448.01 1780.55 1447.36C1779.96 1446.95 1779.46 1446.43 1779.07 1445.83C1778.69 1445.23 1778.42 1444.56 1778.3 1443.85C1778.17 1443.15 1778.19 1442.43 1778.34 1441.73C1778.49 1441.03 1778.78 1440.37 1779.19 1439.78C1782.26 1435.36 1785.33 1430.84 1788.3 1426.34C1788.68 1425.71 1789.18 1425.17 1789.78 1424.74C1790.37 1424.31 1791.05 1424.01 1791.76 1423.85C1792.48 1423.68 1793.22 1423.67 1793.94 1423.8C1794.66 1423.93 1795.35 1424.21 1795.96 1424.61C1796.58 1425.02 1797.1 1425.54 1797.51 1426.15C1797.91 1426.77 1798.19 1427.45 1798.32 1428.17C1798.46 1428.9 1798.44 1429.64 1798.28 1430.35C1798.12 1431.07 1797.82 1431.74 1797.39 1432.34C1794.39 1436.91 1791.26 1441.51 1788.14 1445.99C1787.64 1446.72 1786.97 1447.32 1786.19 1447.73C1785.41 1448.14 1784.54 1448.36 1783.66 1448.36ZM692.45 1441.63C691.559 1441.63 690.682 1441.41 689.895 1440.99C689.109 1440.58 688.437 1439.97 687.94 1439.23C684.88 1434.72 681.83 1430.1 678.87 1425.5C678.47 1424.9 678.194 1424.22 678.057 1423.51C677.921 1422.8 677.927 1422.07 678.075 1421.37C678.223 1420.66 678.511 1419.99 678.921 1419.39C679.331 1418.8 679.855 1418.29 680.464 1417.9C681.072 1417.51 681.752 1417.24 682.464 1417.12C683.176 1416.99 683.905 1417.01 684.61 1417.17C685.315 1417.33 685.982 1417.63 686.571 1418.04C687.159 1418.46 687.659 1419 688.04 1419.61C690.95 1424.14 693.95 1428.68 696.96 1433.12C697.516 1433.94 697.838 1434.9 697.892 1435.88C697.946 1436.87 697.729 1437.86 697.266 1438.73C696.802 1439.61 696.109 1440.34 695.26 1440.85C694.412 1441.36 693.44 1441.63 692.45 1441.63ZM1809.72 1407.85C1808.74 1407.85 1807.79 1407.59 1806.95 1407.09C1806.33 1406.73 1805.8 1406.24 1805.37 1405.67C1804.94 1405.1 1804.62 1404.44 1804.45 1403.75C1804.27 1403.06 1804.23 1402.34 1804.33 1401.63C1804.43 1400.92 1804.67 1400.24 1805.04 1399.62C1807.79 1394.98 1810.52 1390.24 1813.15 1385.55C1813.5 1384.93 1813.97 1384.38 1814.53 1383.93C1815.09 1383.49 1815.74 1383.16 1816.43 1382.97C1817.12 1382.77 1817.84 1382.72 1818.55 1382.8C1819.26 1382.89 1819.95 1383.11 1820.57 1383.46C1821.19 1383.81 1821.74 1384.28 1822.19 1384.84C1822.63 1385.4 1822.96 1386.05 1823.15 1386.74C1823.35 1387.43 1823.4 1388.15 1823.32 1388.86C1823.23 1389.57 1823.01 1390.26 1822.66 1390.88C1819.99 1395.65 1817.22 1400.46 1814.41 1405.18C1813.93 1406 1813.24 1406.67 1812.42 1407.14C1811.6 1407.61 1810.67 1407.85 1809.72 1407.85ZM667 1400.9C666.041 1400.9 665.099 1400.65 664.269 1400.17C663.439 1399.69 662.749 1399 662.27 1398.17C659.55 1393.44 656.84 1388.61 654.27 1383.82C653.906 1383.19 653.671 1382.49 653.58 1381.77C653.489 1381.05 653.543 1380.32 653.74 1379.62C653.937 1378.92 654.272 1378.26 654.725 1377.69C655.179 1377.12 655.742 1376.65 656.381 1376.3C657.02 1375.96 657.722 1375.74 658.447 1375.67C659.171 1375.6 659.902 1375.67 660.597 1375.88C661.292 1376.1 661.937 1376.45 662.494 1376.92C663.051 1377.39 663.509 1377.96 663.84 1378.61C666.4 1383.32 669.06 1388.07 671.75 1392.72C672.226 1393.55 672.477 1394.49 672.476 1395.45C672.475 1396.4 672.223 1397.34 671.745 1398.17C671.267 1399 670.58 1399.69 669.753 1400.17C668.925 1400.64 667.986 1400.9 667.03 1400.9H667ZM1832.83 1365.53C1831.9 1365.53 1830.99 1365.29 1830.18 1364.84C1829.37 1364.39 1828.68 1363.74 1828.19 1362.95C1827.71 1362.16 1827.43 1361.26 1827.38 1360.33C1827.34 1359.4 1827.54 1358.48 1827.95 1357.65C1830.35 1352.83 1832.73 1347.91 1835.02 1343.02C1835.31 1342.35 1835.73 1341.74 1836.25 1341.23C1836.78 1340.72 1837.4 1340.33 1838.09 1340.07C1838.77 1339.8 1839.5 1339.68 1840.23 1339.71C1840.96 1339.73 1841.68 1339.91 1842.34 1340.22C1843 1340.53 1843.6 1340.97 1844.09 1341.51C1844.58 1342.05 1844.95 1342.69 1845.19 1343.38C1845.43 1344.07 1845.52 1344.81 1845.47 1345.54C1845.42 1346.27 1845.22 1346.98 1844.89 1347.63C1842.57 1352.63 1840.15 1357.63 1837.71 1362.51C1837.26 1363.43 1836.55 1364.2 1835.68 1364.73C1834.81 1365.26 1833.8 1365.54 1832.78 1365.53H1832.83ZM644.53 1358.45C643.505 1358.45 642.502 1358.16 641.634 1357.61C640.765 1357.07 640.068 1356.29 639.62 1355.37C637.25 1350.45 634.9 1345.45 632.62 1340.49C632.294 1339.83 632.103 1339.12 632.059 1338.39C632.015 1337.66 632.119 1336.93 632.364 1336.24C632.609 1335.55 632.991 1334.91 633.486 1334.37C633.982 1333.84 634.581 1333.4 635.248 1333.1C635.914 1332.8 636.635 1332.63 637.367 1332.61C638.099 1332.6 638.827 1332.73 639.508 1333C640.189 1333.27 640.808 1333.67 641.329 1334.18C641.85 1334.7 642.262 1335.31 642.54 1335.99C644.75 1340.87 647.06 1345.79 649.4 1350.62C649.798 1351.45 649.979 1352.37 649.926 1353.29C649.874 1354.21 649.589 1355.11 649.1 1355.89C648.61 1356.67 647.93 1357.31 647.124 1357.76C646.318 1358.21 645.412 1358.45 644.49 1358.45H644.53ZM1852.74 1321.62C1851.85 1321.61 1850.97 1321.39 1850.19 1320.96C1849.4 1320.54 1848.74 1319.93 1848.24 1319.19C1847.75 1318.45 1847.45 1317.59 1847.36 1316.71C1847.27 1315.82 1847.4 1314.92 1847.74 1314.1C1849.74 1309.1 1851.74 1304.02 1853.74 1298.98C1854.25 1297.63 1855.28 1296.54 1856.6 1295.95C1857.92 1295.35 1859.42 1295.31 1860.78 1295.83C1862.13 1296.34 1863.22 1297.37 1863.81 1298.69C1864.4 1300.01 1864.44 1301.51 1863.93 1302.86C1861.93 1307.99 1859.93 1313.16 1857.85 1318.23C1857.43 1319.25 1856.72 1320.12 1855.8 1320.73C1854.88 1321.33 1853.79 1321.64 1852.69 1321.62H1852.74ZM625.18 1314.5C624.087 1314.5 623.02 1314.17 622.116 1313.56C621.212 1312.95 620.513 1312.08 620.11 1311.06C618.11 1305.98 616.11 1300.8 614.23 1295.66C613.972 1294.99 613.851 1294.27 613.874 1293.55C613.896 1292.83 614.061 1292.12 614.36 1291.46C614.658 1290.8 615.085 1290.21 615.613 1289.72C616.142 1289.23 616.763 1288.85 617.441 1288.6C618.118 1288.35 618.838 1288.24 619.559 1288.27C620.28 1288.3 620.987 1288.48 621.64 1288.78C622.293 1289.09 622.879 1289.52 623.363 1290.06C623.847 1290.59 624.22 1291.22 624.46 1291.9C626.32 1296.9 628.27 1302.05 630.25 1307.04C630.578 1307.87 630.699 1308.76 630.602 1309.65C630.504 1310.53 630.192 1311.38 629.692 1312.11C629.192 1312.85 628.519 1313.45 627.733 1313.87C626.946 1314.28 626.07 1314.5 625.18 1314.5ZM1869.33 1276.34C1868.76 1276.34 1868.19 1276.25 1867.64 1276.07C1866.27 1275.62 1865.13 1274.64 1864.47 1273.35C1863.82 1272.06 1863.7 1270.57 1864.15 1269.19C1865.82 1264.09 1867.45 1258.89 1868.99 1253.72C1869.43 1252.37 1870.38 1251.25 1871.64 1250.59C1872.9 1249.93 1874.37 1249.79 1875.73 1250.2C1877.09 1250.6 1878.24 1251.52 1878.93 1252.77C1879.62 1254.01 1879.8 1255.47 1879.43 1256.84C1877.86 1262.1 1876.21 1267.39 1874.52 1272.58C1874.16 1273.67 1873.47 1274.63 1872.53 1275.3C1871.6 1275.98 1870.48 1276.34 1869.33 1276.34ZM609.1 1269.15C607.939 1269.15 606.809 1268.78 605.874 1268.09C604.939 1267.41 604.247 1266.44 603.9 1265.33C602.27 1260.11 600.67 1254.8 599.17 1249.54C598.94 1248.84 598.853 1248.11 598.914 1247.38C598.976 1246.64 599.184 1245.93 599.527 1245.28C599.87 1244.64 600.341 1244.06 600.911 1243.6C601.481 1243.14 602.138 1242.79 602.844 1242.59C603.55 1242.39 604.289 1242.33 605.017 1242.42C605.745 1242.51 606.448 1242.75 607.083 1243.12C607.718 1243.49 608.271 1243.98 608.711 1244.57C609.15 1245.16 609.466 1245.83 609.64 1246.54C611.13 1251.71 612.69 1256.94 614.3 1262.07C614.556 1262.89 614.616 1263.75 614.476 1264.59C614.335 1265.44 613.998 1266.24 613.492 1266.93C612.986 1267.62 612.324 1268.18 611.561 1268.56C610.798 1268.95 609.955 1269.15 609.1 1269.15ZM1882.58 1230.08C1881.75 1230.08 1880.94 1229.89 1880.19 1229.53C1879.45 1229.17 1878.8 1228.64 1878.29 1227.99C1877.78 1227.34 1877.42 1226.58 1877.25 1225.77C1877.08 1224.96 1877.09 1224.12 1877.29 1223.32C1878.58 1218.1 1879.82 1212.79 1880.98 1207.53C1881.32 1206.15 1882.19 1204.96 1883.4 1204.21C1884.6 1203.46 1886.06 1203.21 1887.45 1203.52C1888.83 1203.83 1890.05 1204.66 1890.83 1205.85C1891.61 1207.04 1891.89 1208.49 1891.62 1209.88C1890.44 1215.23 1889.18 1220.63 1887.87 1225.88C1887.59 1227.07 1886.91 1228.14 1885.95 1228.9C1884.99 1229.66 1883.81 1230.08 1882.58 1230.08ZM596.39 1222.74C595.161 1222.74 593.969 1222.32 593.007 1221.56C592.045 1220.79 591.37 1219.73 591.09 1218.53C589.84 1213.21 588.64 1207.79 587.52 1202.44C587.361 1201.73 587.344 1201 587.47 1200.29C587.596 1199.58 587.863 1198.9 588.254 1198.29C588.646 1197.68 589.154 1197.16 589.75 1196.75C590.347 1196.34 591.018 1196.05 591.726 1195.91C592.435 1195.76 593.165 1195.75 593.875 1195.89C594.585 1196.03 595.261 1196.31 595.862 1196.71C596.464 1197.11 596.98 1197.63 597.379 1198.23C597.779 1198.83 598.054 1199.51 598.19 1200.22C599.29 1205.48 600.47 1210.8 601.7 1216.04C601.885 1216.84 601.887 1217.67 601.706 1218.47C601.526 1219.27 601.167 1220.02 600.657 1220.67C600.147 1221.31 599.499 1221.83 598.76 1222.19C598.021 1222.55 597.211 1222.74 596.39 1222.74ZM1892.39 1182.97C1892.08 1182.97 1891.77 1182.95 1891.46 1182.89C1890.75 1182.77 1890.08 1182.51 1889.47 1182.13C1888.87 1181.75 1888.34 1181.25 1887.93 1180.67C1887.52 1180.08 1887.22 1179.42 1887.06 1178.73C1886.91 1178.03 1886.89 1177.31 1887.01 1176.6C1887.91 1171.32 1888.76 1165.93 1889.54 1160.6C1889.62 1159.87 1889.85 1159.17 1890.21 1158.53C1890.56 1157.9 1891.05 1157.34 1891.62 1156.89C1892.2 1156.44 1892.87 1156.12 1893.57 1155.93C1894.28 1155.75 1895.02 1155.7 1895.74 1155.81C1896.47 1155.91 1897.16 1156.16 1897.79 1156.54C1898.41 1156.92 1898.95 1157.43 1899.38 1158.02C1899.81 1158.61 1900.11 1159.29 1900.27 1160C1900.43 1160.71 1900.45 1161.45 1900.32 1162.17C1899.54 1167.6 1898.67 1173.07 1897.75 1178.45C1897.54 1179.72 1896.89 1180.87 1895.91 1181.7C1894.93 1182.53 1893.69 1182.99 1892.41 1183L1892.39 1182.97ZM587.1 1175.53C585.804 1175.53 584.552 1175.06 583.568 1174.22C582.584 1173.38 581.932 1172.21 581.73 1170.93C580.87 1165.54 580.07 1160.06 579.34 1154.62C579.245 1153.91 579.292 1153.19 579.476 1152.5C579.66 1151.81 579.979 1151.16 580.414 1150.59C580.849 1150.02 581.392 1149.54 582.011 1149.18C582.631 1148.82 583.315 1148.59 584.025 1148.5C584.735 1148.4 585.456 1148.45 586.148 1148.63C586.84 1148.82 587.489 1149.13 588.058 1149.57C588.627 1150 589.104 1150.55 589.463 1151.17C589.822 1151.79 590.055 1152.47 590.15 1153.18C590.86 1158.52 591.65 1163.92 592.49 1169.18C592.604 1169.89 592.578 1170.61 592.412 1171.31C592.246 1172 591.945 1172.66 591.525 1173.24C591.105 1173.82 590.575 1174.31 589.965 1174.68C589.355 1175.06 588.677 1175.31 587.97 1175.42C587.683 1175.48 587.392 1175.51 587.1 1175.53ZM1898.77 1135.28C1898.59 1135.29 1898.42 1135.29 1898.24 1135.28C1897.53 1135.21 1896.84 1135.01 1896.2 1134.67C1895.57 1134.33 1895.01 1133.88 1894.56 1133.33C1894.1 1132.77 1893.76 1132.14 1893.55 1131.45C1893.34 1130.77 1893.27 1130.05 1893.34 1129.34C1893.85 1123.98 1894.34 1118.54 1894.7 1113.18C1894.74 1112.46 1894.92 1111.75 1895.23 1111.1C1895.55 1110.44 1895.99 1109.86 1896.53 1109.38C1897.08 1108.9 1897.71 1108.53 1898.4 1108.3C1899.08 1108.07 1899.81 1107.98 1900.53 1108.03C1901.26 1108.08 1901.96 1108.28 1902.61 1108.6C1903.25 1108.93 1903.83 1109.38 1904.3 1109.94C1904.77 1110.49 1905.12 1111.13 1905.34 1111.82C1905.56 1112.51 1905.64 1113.24 1905.57 1113.96C1905.18 1119.41 1904.71 1124.96 1904.19 1130.38C1904.05 1131.72 1903.42 1132.97 1902.42 1133.87C1901.42 1134.78 1900.12 1135.28 1898.77 1135.28ZM581.29 1127.77C579.924 1127.77 578.609 1127.25 577.604 1126.32C576.6 1125.4 575.977 1124.13 575.86 1122.77C575.4 1117.34 575 1111.77 574.67 1106.33C574.582 1104.89 575.072 1103.47 576.03 1102.39C576.988 1101.31 578.337 1100.65 579.78 1100.56C581.223 1100.47 582.641 1100.96 583.723 1101.92C584.805 1102.88 585.462 1104.23 585.55 1105.67C585.87 1111.06 586.27 1116.5 586.73 1121.84C586.79 1122.56 586.708 1123.28 586.49 1123.96C586.271 1124.64 585.919 1125.28 585.454 1125.82C584.989 1126.37 584.421 1126.82 583.782 1127.15C583.143 1127.48 582.446 1127.67 581.73 1127.73L581.29 1127.77ZM1901.66 1087.25H1901.52C1900.8 1087.23 1900.1 1087.08 1899.45 1086.79C1898.79 1086.5 1898.2 1086.08 1897.71 1085.56C1897.21 1085.04 1896.83 1084.43 1896.57 1083.77C1896.31 1083.1 1896.19 1082.39 1896.21 1081.67C1896.34 1076.29 1896.4 1070.83 1896.4 1065.46C1896.45 1065.07 1896.45 1064.67 1896.4 1064.28C1896.4 1058.89 1896.32 1053.43 1896.18 1048.07C1896.14 1047.34 1896.24 1046.61 1896.48 1045.92C1896.73 1045.23 1897.11 1044.6 1897.61 1044.06C1898.1 1043.52 1898.7 1043.09 1899.36 1042.78C1900.03 1042.48 1900.75 1042.31 1901.48 1042.3C1902.21 1042.28 1902.94 1042.41 1903.62 1042.67C1904.3 1042.94 1904.92 1043.34 1905.44 1043.86C1905.96 1044.37 1906.38 1044.98 1906.66 1045.66C1906.94 1046.33 1907.08 1047.06 1907.07 1047.79C1907.22 1053.24 1907.29 1058.79 1907.3 1064.26C1907.31 1064.46 1907.31 1064.66 1907.3 1064.86C1907.3 1065.06 1907.3 1065.26 1907.3 1065.46C1907.3 1070.92 1907.24 1076.46 1907.1 1081.93C1907.07 1083.35 1906.48 1084.71 1905.46 1085.7C1904.45 1086.69 1903.08 1087.25 1901.66 1087.25ZM578.94 1079.7C577.507 1079.7 576.131 1079.14 575.111 1078.13C574.091 1077.12 573.508 1075.75 573.49 1074.32C573.49 1071.32 573.43 1068.39 573.43 1065.46C573.43 1062.91 573.43 1060.38 573.48 1057.84C573.493 1056.4 574.074 1055.03 575.094 1054.02C576.115 1053.01 577.494 1052.45 578.93 1052.45H579C579.716 1052.46 580.423 1052.61 581.081 1052.89C581.739 1053.17 582.336 1053.58 582.836 1054.09C583.337 1054.6 583.732 1055.21 583.998 1055.87C584.265 1056.53 584.398 1057.24 584.39 1057.96C584.39 1060.46 584.39 1062.96 584.39 1065.46C584.39 1068.34 584.39 1071.27 584.39 1074.18C584.399 1074.9 584.267 1075.61 584.002 1076.27C583.737 1076.94 583.343 1077.54 582.843 1078.05C582.344 1078.57 581.748 1078.98 581.09 1079.26C580.433 1079.54 579.726 1079.69 579.01 1079.7H578.94ZM580.04 1031.6H579.71C578.268 1031.51 576.92 1030.86 575.96 1029.78C575.001 1028.7 574.508 1027.28 574.59 1025.84C574.91 1020.37 575.31 1014.84 575.76 1009.4C575.91 1007.98 576.608 1006.68 577.705 1005.77C578.802 1004.87 580.211 1004.42 581.63 1004.54C583.049 1004.66 584.366 1005.33 585.299 1006.4C586.231 1007.48 586.706 1008.88 586.62 1010.3C586.18 1015.66 585.79 1021.1 585.47 1026.47C585.388 1027.86 584.775 1029.17 583.758 1030.13C582.74 1031.08 581.395 1031.61 580 1031.6H580.04ZM1900.04 1021.6C1898.67 1021.6 1897.36 1021.09 1896.35 1020.16C1895.34 1019.23 1894.72 1017.96 1894.61 1016.6C1894.21 1011.22 1893.75 1005.79 1893.22 1000.45C1893.08 999.012 1893.51 997.575 1894.43 996.458C1895.35 995.34 1896.67 994.632 1898.11 994.49C1899.55 994.349 1900.99 994.784 1902.1 995.701C1903.22 996.618 1903.93 997.942 1904.07 999.38C1904.6 1004.81 1905.07 1010.38 1905.48 1015.8C1905.59 1017.24 1905.12 1018.66 1904.18 1019.75C1903.25 1020.84 1901.92 1021.52 1900.48 1021.63L1900.04 1021.6ZM584.59 983.701C584.349 983.699 584.109 983.682 583.87 983.651C583.16 983.557 582.476 983.324 581.856 982.966C581.236 982.608 580.692 982.131 580.257 981.562C579.821 980.994 579.502 980.345 579.317 979.654C579.132 978.962 579.086 978.24 579.18 977.531C579.89 972.121 580.68 966.63 581.53 961.22C581.641 960.513 581.89 959.835 582.263 959.224C582.636 958.613 583.126 958.082 583.705 957.66C584.283 957.239 584.939 956.935 585.635 956.767C586.331 956.599 587.053 956.57 587.76 956.68C588.467 956.791 589.146 957.041 589.756 957.414C590.367 957.787 590.899 958.277 591.32 958.855C591.742 959.434 592.045 960.09 592.213 960.785C592.382 961.481 592.411 962.203 592.3 962.91C591.47 968.23 590.69 973.631 589.99 978.961C589.814 980.269 589.17 981.47 588.177 982.341C587.185 983.213 585.911 983.695 584.59 983.701ZM1894.77 973.81C1893.46 973.81 1892.2 973.338 1891.21 972.482C1890.22 971.627 1889.58 970.444 1889.39 969.151C1888.6 963.841 1887.74 958.451 1886.83 953.151C1886.59 951.73 1886.92 950.272 1887.76 949.096C1888.59 947.92 1889.85 947.122 1891.27 946.876C1892.69 946.631 1894.15 946.957 1895.33 947.784C1896.51 948.611 1897.32 949.872 1897.57 951.29C1898.5 956.69 1899.38 962.16 1900.17 967.57C1900.28 968.345 1900.23 969.135 1900.01 969.886C1899.79 970.637 1899.41 971.332 1898.89 971.923C1898.38 972.515 1897.75 972.99 1897.04 973.316C1896.33 973.641 1895.55 973.81 1894.77 973.81ZM592.61 936.25C592.237 936.254 591.865 936.217 591.5 936.141C590.799 935.996 590.133 935.715 589.54 935.314C588.947 934.912 588.439 934.397 588.045 933.799C587.652 933.201 587.38 932.531 587.245 931.828C587.11 931.125 587.115 930.402 587.26 929.701C588.37 924.321 589.57 918.91 590.8 913.6C591.128 912.192 592.001 910.972 593.229 910.207C594.456 909.443 595.937 909.198 597.345 909.526C598.753 909.853 599.974 910.727 600.738 911.954C601.502 913.181 601.748 914.662 601.42 916.07C600.2 921.29 599.03 926.62 597.94 931.91C597.683 933.135 597.014 934.234 596.044 935.024C595.073 935.814 593.861 936.247 592.61 936.25ZM1886 926.5C1884.76 926.499 1883.56 926.075 1882.59 925.299C1881.62 924.523 1880.95 923.44 1880.68 922.23C1879.51 916.97 1878.26 911.661 1876.96 906.451C1876.61 905.048 1876.83 903.563 1877.58 902.325C1878.33 901.086 1879.53 900.194 1880.94 899.845C1882.34 899.497 1883.82 899.72 1885.06 900.465C1886.3 901.21 1887.19 902.418 1887.54 903.82C1888.86 909.11 1890.13 914.51 1891.32 919.82C1891.48 920.519 1891.49 921.242 1891.37 921.947C1891.25 922.652 1890.99 923.327 1890.6 923.931C1890.22 924.536 1889.72 925.059 1889.14 925.47C1888.55 925.882 1887.89 926.174 1887.19 926.331C1886.8 926.426 1886.4 926.483 1886 926.5ZM604 889.5C603.493 889.499 602.988 889.429 602.5 889.29C601.111 888.895 599.935 887.964 599.232 886.702C598.529 885.44 598.355 883.95 598.75 882.56C600.25 877.29 601.83 871.98 603.46 866.76C603.89 865.371 604.854 864.209 606.14 863.53C607.427 862.851 608.93 862.711 610.32 863.141C611.71 863.57 612.872 864.534 613.551 865.821C614.23 867.107 614.37 868.611 613.94 870C612.34 875.14 610.78 880.36 609.31 885.54C608.988 886.683 608.302 887.69 607.357 888.409C606.411 889.127 605.257 889.517 604.07 889.521L604 889.5ZM1873.87 880C1872.7 879.997 1871.56 879.617 1870.62 878.917C1869.68 878.216 1868.99 877.233 1868.65 876.11C1867.11 870.98 1865.47 865.781 1863.79 860.651C1863.54 859.964 1863.43 859.234 1863.47 858.505C1863.5 857.775 1863.69 857.06 1864.01 856.402C1864.32 855.745 1864.77 855.158 1865.32 854.677C1865.87 854.196 1866.51 853.831 1867.21 853.603C1867.9 853.375 1868.64 853.289 1869.36 853.35C1870.09 853.411 1870.8 853.618 1871.45 853.958C1872.09 854.298 1872.67 854.765 1873.13 855.331C1873.59 855.896 1873.93 856.549 1874.14 857.25C1875.85 862.46 1877.52 867.75 1879.09 872.97C1879.3 873.656 1879.37 874.376 1879.3 875.088C1879.23 875.801 1879.01 876.493 1878.68 877.124C1878.34 877.754 1877.88 878.312 1877.32 878.765C1876.77 879.217 1876.13 879.556 1875.44 879.76C1874.93 879.918 1874.4 879.999 1873.87 880ZM619 843.68C618.361 843.68 617.728 843.565 617.13 843.341C616.456 843.096 615.836 842.721 615.307 842.236C614.779 841.752 614.351 841.167 614.049 840.517C613.747 839.866 613.576 839.162 613.547 838.445C613.518 837.729 613.631 837.013 613.88 836.341C615.76 831.201 617.74 826.001 619.75 820.891C620.013 820.225 620.404 819.617 620.901 819.103C621.399 818.588 621.993 818.176 622.649 817.891C623.306 817.606 624.012 817.453 624.728 817.441C625.443 817.429 626.154 817.558 626.82 817.82C627.486 818.083 628.093 818.474 628.608 818.972C629.123 819.469 629.534 820.063 629.819 820.72C630.104 821.376 630.257 822.082 630.269 822.798C630.282 823.514 630.153 824.225 629.89 824.891C627.89 829.891 625.97 835.031 624.12 840.091C623.737 841.141 623.041 842.049 622.125 842.691C621.209 843.333 620.118 843.678 619 843.68ZM1858.37 834.41C1857.27 834.411 1856.19 834.076 1855.28 833.451C1854.37 832.826 1853.67 831.94 1853.28 830.91C1851.36 825.91 1849.35 820.821 1847.28 815.841C1847.01 815.179 1846.87 814.47 1846.87 813.754C1846.87 813.038 1847.01 812.33 1847.29 811.669C1847.56 811.008 1847.97 810.408 1848.47 809.903C1848.98 809.398 1849.58 808.998 1850.25 808.725C1850.91 808.453 1851.62 808.314 1852.33 808.315C1853.05 808.317 1853.76 808.459 1854.42 808.734C1855.08 809.01 1855.68 809.413 1856.18 809.92C1856.69 810.427 1857.09 811.029 1857.36 811.69C1859.44 816.75 1861.49 821.9 1863.44 827.01C1863.94 828.356 1863.9 829.846 1863.31 831.157C1862.72 832.467 1861.64 833.493 1860.3 834.01C1859.67 834.264 1859 834.399 1858.32 834.41H1858.37ZM637.16 799C636.246 799.004 635.347 798.778 634.543 798.344C633.739 797.909 633.058 797.28 632.56 796.514C632.063 795.748 631.765 794.869 631.695 793.958C631.625 793.047 631.785 792.134 632.16 791.3C634.42 786.3 636.77 781.3 639.16 776.3C639.793 775.008 640.911 774.018 642.272 773.546C643.632 773.075 645.123 773.162 646.42 773.786C647.717 774.411 648.714 775.523 649.194 776.881C649.673 778.238 649.596 779.73 648.98 781.031C646.64 785.881 644.33 790.84 642.1 795.76C641.674 796.718 640.982 797.532 640.106 798.106C639.23 798.681 638.207 798.991 637.16 799ZM1839.51 790.17C1838.48 790.17 1837.46 789.876 1836.59 789.322C1835.72 788.767 1835.02 787.976 1834.58 787.04C1832.29 782.17 1829.92 777.28 1827.58 772.49C1827.25 771.849 1827.04 771.147 1826.98 770.427C1826.92 769.706 1827.01 768.981 1827.23 768.293C1827.46 767.606 1827.81 766.969 1828.29 766.421C1828.76 765.873 1829.33 765.425 1829.98 765.102C1830.63 764.779 1831.33 764.587 1832.05 764.539C1832.78 764.491 1833.5 764.587 1834.18 764.822C1834.87 765.056 1835.5 765.424 1836.04 765.905C1836.58 766.385 1837.02 766.969 1837.33 767.62C1839.76 772.48 1842.17 777.46 1844.49 782.41C1844.88 783.24 1845.06 784.156 1845.01 785.073C1844.95 785.99 1844.66 786.877 1844.17 787.652C1843.68 788.428 1843 789.065 1842.19 789.506C1841.38 789.946 1840.48 790.175 1839.56 790.17H1839.51ZM658.59 755.841C657.646 755.839 656.719 755.592 655.899 755.125C655.08 754.657 654.396 753.985 653.914 753.173C653.432 752.362 653.169 751.439 653.151 750.495C653.133 749.552 653.36 748.62 653.81 747.79C656.42 742.97 659.13 738.12 661.86 733.37C662.581 732.117 663.771 731.202 665.167 730.826C666.563 730.45 668.052 730.644 669.305 731.365C670.558 732.087 671.473 733.277 671.849 734.673C672.225 736.069 672.031 737.557 671.31 738.81C668.62 743.48 665.96 748.25 663.39 752.99C662.921 753.854 662.228 754.575 661.383 755.077C660.538 755.578 659.573 755.842 658.59 755.841ZM1817.54 747.49C1816.57 747.492 1815.62 747.235 1814.78 746.747C1813.95 746.258 1813.25 745.555 1812.78 744.711C1810.15 740.031 1807.43 735.321 1804.69 730.711C1804.32 730.095 1804.08 729.414 1803.98 728.706C1803.88 727.997 1803.92 727.276 1804.09 726.582C1804.27 725.888 1804.58 725.236 1805.01 724.663C1805.44 724.09 1805.97 723.606 1806.59 723.24C1807.21 722.875 1807.89 722.634 1808.59 722.531C1809.3 722.429 1810.02 722.467 1810.72 722.643C1811.41 722.82 1812.06 723.131 1812.64 723.56C1813.21 723.988 1813.69 724.525 1814.06 725.141C1816.85 729.831 1819.61 734.62 1822.29 739.38C1822.76 740.21 1823 741.146 1822.99 742.098C1822.98 743.049 1822.72 743.981 1822.24 744.802C1821.76 745.623 1821.08 746.304 1820.25 746.778C1819.43 747.251 1818.49 747.5 1817.54 747.5V747.49ZM683.1 714.35C682.123 714.349 681.164 714.084 680.324 713.585C679.484 713.086 678.794 712.37 678.325 711.512C677.857 710.654 677.628 709.686 677.662 708.709C677.697 707.733 677.993 706.783 678.52 705.961C681.52 701.351 684.52 696.72 687.6 692.18C687.978 691.539 688.484 690.982 689.086 690.543C689.689 690.105 690.374 689.795 691.101 689.632C691.828 689.469 692.58 689.456 693.312 689.595C694.044 689.734 694.739 690.022 695.355 690.44C695.972 690.859 696.495 691.399 696.895 692.028C697.294 692.657 697.56 693.36 697.677 694.096C697.794 694.832 697.758 695.583 697.573 696.305C697.388 697.026 697.057 697.702 696.6 698.29C693.6 702.75 690.6 707.291 687.67 711.841C687.179 712.608 686.504 713.24 685.705 713.679C684.907 714.117 684.011 714.348 683.1 714.35ZM1792.51 706.48C1791.61 706.471 1790.73 706.239 1789.94 705.806C1789.16 705.374 1788.49 704.753 1788 704C1785 699.52 1782 695 1778.9 690.61C1778.49 690.023 1778.2 689.362 1778.05 688.662C1777.89 687.963 1777.88 687.241 1778 686.536C1778.13 685.831 1778.39 685.158 1778.78 684.555C1779.16 683.952 1779.66 683.43 1780.25 683.021C1780.84 682.611 1781.5 682.321 1782.2 682.167C1782.9 682.013 1783.62 681.998 1784.32 682.124C1785.03 682.249 1785.7 682.512 1786.31 682.897C1786.91 683.283 1787.43 683.783 1787.84 684.37C1790.97 688.86 1794.08 693.44 1797.09 697.98C1797.63 698.801 1797.95 699.755 1797.99 700.738C1798.04 701.722 1797.81 702.7 1797.35 703.568C1796.88 704.435 1796.19 705.161 1795.35 705.667C1794.5 706.172 1793.53 706.44 1792.55 706.44L1792.51 706.48ZM710.56 674.781C709.548 674.781 708.556 674.499 707.695 673.967C706.834 673.434 706.138 672.673 705.685 671.768C705.233 670.863 705.041 669.849 705.132 668.841C705.223 667.833 705.593 666.87 706.2 666.06C709.48 661.68 712.86 657.28 716.2 652.98C717.095 651.845 718.404 651.112 719.84 650.943C721.276 650.773 722.72 651.18 723.855 652.076C724.99 652.971 725.723 654.28 725.893 655.716C726.063 657.151 725.655 658.595 724.76 659.73C721.43 663.95 718.1 668.28 714.87 672.6C714.369 673.272 713.719 673.819 712.971 674.197C712.223 674.575 711.398 674.775 710.56 674.781ZM1764.56 667.37C1763.73 667.371 1762.9 667.18 1762.15 666.812C1761.41 666.445 1760.75 665.91 1760.24 665.25C1756.97 661 1753.59 656.73 1750.24 652.54C1749.76 651.989 1749.39 651.346 1749.16 650.649C1748.93 649.952 1748.84 649.216 1748.91 648.485C1748.97 647.755 1749.18 647.044 1749.52 646.396C1749.86 645.747 1750.33 645.175 1750.9 644.713C1751.47 644.251 1752.13 643.909 1752.84 643.707C1753.54 643.505 1754.28 643.447 1755.01 643.538C1755.74 643.628 1756.44 643.864 1757.07 644.233C1757.71 644.601 1758.26 645.093 1758.7 645.68C1762.15 649.93 1765.58 654.27 1768.92 658.6C1769.54 659.406 1769.93 660.371 1770.03 661.385C1770.13 662.398 1769.95 663.42 1769.5 664.334C1769.05 665.248 1768.35 666.018 1767.48 666.554C1766.62 667.091 1765.62 667.374 1764.6 667.37H1764.56ZM740.8 637.31C739.757 637.312 738.735 637.013 737.857 636.45C736.979 635.887 736.281 635.083 735.847 634.135C735.413 633.186 735.261 632.133 735.408 631.1C735.556 630.068 735.997 629.099 736.68 628.31C740.27 624.18 743.96 620.04 747.68 616C748.163 615.472 748.745 615.044 749.393 614.74C750.041 614.436 750.743 614.263 751.458 614.231C752.173 614.198 752.887 614.307 753.56 614.551C754.233 614.794 754.851 615.168 755.38 615.651C755.909 616.133 756.337 616.715 756.641 617.363C756.944 618.011 757.117 618.713 757.15 619.428C757.182 620.143 757.074 620.857 756.83 621.53C756.586 622.203 756.213 622.822 755.73 623.35C752.1 627.35 748.47 631.351 744.94 635.461C744.425 636.05 743.788 636.521 743.073 636.84C742.358 637.16 741.583 637.32 740.8 637.31ZM1733.8 630.37C1733.03 630.372 1732.27 630.211 1731.57 629.897C1730.87 629.584 1730.24 629.125 1729.73 628.55C1726.16 624.55 1722.48 620.55 1718.79 616.6C1718.3 616.075 1717.92 615.459 1717.67 614.786C1717.42 614.113 1717.3 613.397 1717.32 612.68C1717.35 611.962 1717.52 611.256 1717.81 610.602C1718.11 609.949 1718.53 609.36 1719.06 608.87C1719.59 608.381 1720.2 607.999 1720.87 607.748C1721.55 607.496 1722.26 607.379 1722.98 607.405C1723.7 607.43 1724.4 607.596 1725.06 607.894C1725.71 608.192 1726.3 608.615 1726.79 609.141C1730.54 613.141 1734.28 617.22 1737.91 621.29C1738.61 622.073 1739.08 623.043 1739.24 624.084C1739.4 625.124 1739.26 626.19 1738.83 627.151C1738.4 628.112 1737.7 628.928 1736.82 629.5C1735.93 630.071 1734.9 630.374 1733.85 630.37H1733.8ZM773.65 602.151C772.57 602.151 771.514 601.831 770.616 601.23C769.719 600.629 769.02 599.775 768.608 598.777C768.197 597.778 768.091 596.68 768.305 595.621C768.519 594.562 769.043 593.591 769.81 592.831C773.68 588.981 777.65 585.12 781.63 581.35C782.144 580.829 782.757 580.417 783.433 580.138C784.109 579.859 784.835 579.719 785.566 579.726C786.298 579.734 787.02 579.888 787.691 580.181C788.361 580.473 788.966 580.898 789.469 581.429C789.972 581.96 790.363 582.587 790.618 583.273C790.874 583.958 790.989 584.688 790.956 585.419C790.924 586.15 790.744 586.866 790.429 587.526C790.113 588.186 789.668 588.776 789.12 589.26C785.22 592.97 781.31 596.77 777.5 600.56C776.478 601.579 775.093 602.151 773.65 602.151ZM1700.5 595.68C1699.08 595.683 1697.72 595.131 1696.7 594.141C1692.85 590.401 1688.88 586.66 1684.92 583C1684.36 582.525 1683.9 581.941 1683.58 581.283C1683.25 580.626 1683.06 579.91 1683.01 579.177C1682.97 578.443 1683.07 577.709 1683.32 577.017C1683.57 576.326 1683.95 575.691 1684.45 575.151C1684.95 574.612 1685.55 574.179 1686.22 573.878C1686.89 573.577 1687.61 573.415 1688.35 573.401C1689.08 573.386 1689.81 573.521 1690.49 573.796C1691.17 574.071 1691.79 574.481 1692.31 575C1696.31 578.71 1700.37 582.52 1704.31 586.32C1705.09 587.075 1705.63 588.046 1705.85 589.109C1706.08 590.171 1705.98 591.277 1705.58 592.284C1705.17 593.291 1704.47 594.153 1703.57 594.76C1702.67 595.367 1701.61 595.691 1700.52 595.69L1700.5 595.68ZM809 569.461C807.887 569.461 806.801 569.121 805.887 568.487C804.973 567.852 804.275 566.952 803.887 565.909C803.5 564.866 803.441 563.729 803.718 562.651C803.996 561.573 804.597 560.607 805.44 559.88C809.58 556.32 813.82 552.751 818.05 549.281C819.168 548.364 820.604 547.929 822.042 548.072C823.481 548.214 824.804 548.923 825.72 550.04C826.636 551.158 827.071 552.594 826.929 554.033C826.786 555.471 826.078 556.794 824.96 557.711C820.8 561.131 816.62 564.631 812.56 568.141C811.569 568.991 810.306 569.459 809 569.461ZM1664.78 563.461C1663.5 563.459 1662.26 563.006 1661.28 562.18C1657.16 558.73 1652.93 555.28 1648.72 551.92C1648.14 551.484 1647.64 550.934 1647.28 550.303C1646.91 549.673 1646.67 548.975 1646.58 548.251C1646.48 547.527 1646.54 546.791 1646.73 546.088C1646.93 545.385 1647.27 544.729 1647.72 544.158C1648.18 543.587 1648.74 543.113 1649.38 542.765C1650.02 542.417 1650.73 542.201 1651.45 542.13C1652.18 542.06 1652.91 542.136 1653.61 542.354C1654.31 542.572 1654.95 542.928 1655.51 543.401C1659.79 546.811 1664.09 550.321 1668.28 553.831C1669.14 554.549 1669.76 555.514 1670.05 556.595C1670.34 557.676 1670.29 558.82 1669.91 559.872C1669.52 560.924 1668.83 561.833 1667.91 562.475C1666.99 563.117 1665.9 563.461 1664.78 563.461ZM846.51 539.41C845.364 539.411 844.248 539.051 843.319 538.381C842.389 537.711 841.695 536.765 841.334 535.678C840.973 534.59 840.964 533.417 841.308 532.324C841.652 531.232 842.331 530.275 843.25 529.591C847.64 526.331 852.12 523.09 856.59 519.94C857.175 519.528 857.836 519.235 858.534 519.078C859.232 518.921 859.955 518.903 860.66 519.025C861.365 519.147 862.039 519.407 862.644 519.79C863.249 520.172 863.773 520.67 864.185 521.255C864.597 521.841 864.89 522.501 865.047 523.199C865.205 523.898 865.223 524.62 865.1 525.325C864.978 526.031 864.719 526.705 864.336 527.31C863.953 527.915 863.455 528.438 862.87 528.85C858.48 531.95 854.06 535.141 849.75 538.341C848.814 539.038 847.677 539.413 846.51 539.41ZM1626.72 533.92C1625.58 533.928 1624.46 533.578 1623.53 532.92C1619.16 529.76 1614.69 526.631 1610.25 523.591C1609.66 523.187 1609.15 522.67 1608.76 522.071C1608.37 521.472 1608.1 520.802 1607.97 520.098C1607.84 519.395 1607.84 518.672 1607.99 517.972C1608.14 517.271 1608.42 516.606 1608.83 516.016C1609.23 515.425 1609.75 514.919 1610.34 514.527C1610.94 514.136 1611.61 513.866 1612.32 513.734C1613.02 513.602 1613.74 513.609 1614.44 513.756C1615.14 513.903 1615.81 514.187 1616.4 514.591C1620.92 517.681 1625.46 520.87 1629.91 524.07C1630.84 524.747 1631.54 525.701 1631.9 526.796C1632.25 527.891 1632.25 529.072 1631.9 530.168C1631.55 531.265 1630.85 532.221 1629.92 532.9C1628.99 533.58 1627.87 533.947 1626.72 533.951V533.92ZM886.12 512.18C884.954 512.166 883.823 511.777 882.894 511.072C881.965 510.367 881.287 509.383 880.959 508.263C880.631 507.144 880.671 505.949 881.073 504.854C881.474 503.76 882.216 502.822 883.19 502.18C887.8 499.25 892.51 496.34 897.19 493.53C897.803 493.161 898.483 492.917 899.191 492.811C899.899 492.704 900.621 492.739 901.315 492.911C902.01 493.084 902.664 493.392 903.239 493.817C903.815 494.243 904.301 494.777 904.67 495.391C905.039 496.004 905.284 496.684 905.39 497.392C905.496 498.099 905.462 498.821 905.289 499.516C905.116 500.21 904.809 500.864 904.383 501.44C903.958 502.015 903.423 502.501 902.81 502.87C898.21 505.64 893.58 508.5 889.04 511.38C888.164 511.923 887.15 512.201 886.12 512.18ZM1586.64 507.18C1585.63 507.181 1584.65 506.9 1583.79 506.37C1579.21 503.55 1574.52 500.74 1569.86 498.03C1569.23 497.678 1568.67 497.203 1568.22 496.633C1567.78 496.064 1567.45 495.41 1567.25 494.712C1567.06 494.013 1567.01 493.283 1567.11 492.565C1567.2 491.846 1567.44 491.154 1567.8 490.528C1568.16 489.902 1568.65 489.354 1569.23 488.918C1569.81 488.482 1570.47 488.165 1571.17 487.986C1571.87 487.808 1572.6 487.771 1573.32 487.878C1574.03 487.985 1574.72 488.234 1575.34 488.61C1580.08 491.37 1584.85 494.22 1589.51 497.09C1590.52 497.713 1591.3 498.649 1591.73 499.756C1592.16 500.863 1592.22 502.08 1591.89 503.222C1591.57 504.364 1590.88 505.368 1589.93 506.083C1588.98 506.798 1587.83 507.183 1586.64 507.18ZM927.58 487.91C926.366 487.91 925.187 487.505 924.23 486.759C923.273 486.012 922.592 484.968 922.296 483.791C922 482.614 922.105 481.372 922.595 480.261C923.085 479.151 923.931 478.235 925 477.66C929.81 475.07 934.71 472.51 939.58 470.05C940.219 469.727 940.915 469.533 941.629 469.479C942.343 469.425 943.06 469.513 943.741 469.736C944.421 469.959 945.05 470.314 945.593 470.781C946.136 471.248 946.582 471.817 946.905 472.455C947.228 473.094 947.422 473.791 947.476 474.504C947.53 475.218 947.443 475.936 947.22 476.616C946.996 477.296 946.641 477.926 946.174 478.469C945.708 479.012 945.139 479.457 944.5 479.78C939.71 482.2 934.89 484.71 930.16 487.26C929.367 487.688 928.481 487.912 927.58 487.91ZM1544.71 483.44C1543.84 483.443 1542.98 483.234 1542.21 482.83C1537.42 480.35 1532.54 477.89 1527.7 475.52C1527.03 475.221 1526.44 474.791 1525.94 474.255C1525.44 473.72 1525.06 473.09 1524.81 472.403C1524.56 471.717 1524.45 470.987 1524.49 470.258C1524.53 469.529 1524.72 468.815 1525.04 468.159C1525.36 467.503 1525.81 466.918 1526.36 466.439C1526.91 465.959 1527.55 465.596 1528.25 465.369C1528.94 465.143 1529.67 465.058 1530.4 465.12C1531.13 465.182 1531.83 465.39 1532.48 465.73C1537.4 468.13 1542.36 470.63 1547.23 473.16C1548.31 473.725 1549.17 474.636 1549.67 475.746C1550.17 476.857 1550.29 478.104 1550 479.288C1549.71 480.472 1549.03 481.524 1548.07 482.277C1547.11 483.03 1545.93 483.439 1544.71 483.44ZM970.66 466.73C969.411 466.732 968.199 466.304 967.227 465.518C966.256 464.733 965.584 463.637 965.323 462.415C965.063 461.193 965.231 459.919 965.798 458.806C966.366 457.692 967.298 456.808 968.44 456.3C973.44 454.07 978.44 451.88 983.52 449.78C984.854 449.224 986.355 449.219 987.692 449.769C989.029 450.318 990.093 451.376 990.65 452.71C991.207 454.045 991.211 455.545 990.662 456.882C990.112 458.219 989.054 459.284 987.72 459.84C982.72 461.9 977.78 464.06 972.89 466.25C972.188 466.564 971.429 466.727 970.66 466.73ZM1501.14 462.81C1500.4 462.81 1499.68 462.661 1499 462.37C1494 460.24 1489 458.141 1484 456.141C1483.3 455.908 1482.65 455.534 1482.09 455.041C1481.54 454.549 1481.09 453.948 1480.77 453.276C1480.46 452.603 1480.28 451.874 1480.26 451.132C1480.24 450.39 1480.37 449.652 1480.64 448.962C1480.91 448.271 1481.32 447.644 1481.85 447.118C1482.37 446.593 1483 446.179 1483.69 445.904C1484.37 445.629 1485.11 445.497 1485.85 445.517C1486.6 445.537 1487.33 445.708 1488 446.02C1493.08 448.02 1498.22 450.19 1503.27 452.35C1504.43 452.845 1505.37 453.724 1505.96 454.838C1506.54 455.951 1506.72 457.232 1506.46 458.463C1506.21 459.693 1505.54 460.798 1504.56 461.591C1503.59 462.383 1502.37 462.814 1501.11 462.81H1501.14ZM1015.14 448.75C1013.86 448.746 1012.62 448.292 1011.65 447.468C1010.67 446.643 1010.01 445.5 1009.79 444.24C1009.57 442.98 1009.8 441.682 1010.44 440.574C1011.08 439.466 1012.09 438.619 1013.29 438.18C1018.43 436.32 1023.67 434.491 1028.86 432.761C1030.23 432.303 1031.73 432.409 1033.02 433.055C1034.31 433.701 1035.3 434.834 1035.76 436.205C1036.21 437.577 1036.11 439.073 1035.46 440.366C1034.81 441.66 1033.68 442.643 1032.31 443.1C1027.21 444.8 1022.06 446.6 1017 448.43C1016.41 448.643 1015.78 448.751 1015.15 448.75H1015.14ZM1456.14 445.421C1455.54 445.418 1454.94 445.317 1454.37 445.12C1449.26 443.36 1444.07 441.641 1438.92 440.011C1438.24 439.794 1437.6 439.445 1437.06 438.984C1436.51 438.522 1436.06 437.958 1435.73 437.322C1435.4 436.687 1435.2 435.992 1435.14 435.279C1435.08 434.566 1435.16 433.848 1435.38 433.166C1435.59 432.483 1435.94 431.85 1436.4 431.303C1436.86 430.756 1437.43 430.305 1438.06 429.975C1438.7 429.646 1439.39 429.445 1440.11 429.385C1440.82 429.324 1441.54 429.404 1442.22 429.62C1447.45 431.28 1452.73 433.03 1457.92 434.81C1459.14 435.227 1460.18 436.065 1460.84 437.176C1461.51 438.286 1461.76 439.597 1461.54 440.872C1461.33 442.148 1460.67 443.306 1459.68 444.139C1458.69 444.973 1457.43 445.427 1456.14 445.421ZM1061 434C1059.68 434.005 1058.41 433.53 1057.41 432.665C1056.41 431.801 1055.76 430.604 1055.58 429.297C1055.4 427.991 1055.7 426.663 1056.43 425.56C1057.15 424.457 1058.25 423.655 1059.52 423.3C1064.79 421.82 1070.14 420.391 1075.45 419.041C1076.15 418.839 1076.89 418.781 1077.61 418.869C1078.34 418.957 1079.04 419.189 1079.67 419.553C1080.3 419.917 1080.85 420.404 1081.3 420.985C1081.74 421.567 1082.06 422.231 1082.24 422.938C1082.42 423.646 1082.45 424.382 1082.34 425.104C1082.23 425.825 1081.98 426.517 1081.59 427.139C1081.21 427.76 1080.71 428.298 1080.11 428.721C1079.52 429.144 1078.84 429.443 1078.13 429.6C1072.92 430.93 1067.65 432.34 1062.47 433.8C1061.99 433.93 1061.5 433.997 1061 434ZM1410.1 431.35C1409.63 431.349 1409.16 431.289 1408.7 431.171C1403.5 429.791 1398.21 428.46 1392.98 427.22C1391.57 426.886 1390.36 426.007 1389.6 424.776C1388.84 423.545 1388.6 422.062 1388.94 420.655C1389.27 419.249 1390.15 418.032 1391.38 417.273C1392.61 416.515 1394.09 416.276 1395.5 416.61C1400.82 417.88 1406.2 419.23 1411.5 420.61C1412.78 420.948 1413.89 421.74 1414.63 422.839C1415.37 423.938 1415.69 425.268 1415.52 426.581C1415.35 427.895 1414.7 429.101 1413.71 429.975C1412.71 430.849 1411.43 431.331 1410.11 431.33L1410.1 431.35ZM1107.76 422.68C1106.41 422.678 1105.11 422.175 1104.11 421.268C1103.11 420.362 1102.48 419.116 1102.35 417.773C1102.21 416.43 1102.58 415.085 1103.38 413.998C1104.18 412.911 1105.36 412.16 1106.68 411.891C1112.04 410.801 1117.49 409.76 1122.87 408.81C1124.28 408.582 1125.73 408.918 1126.89 409.745C1128.06 410.573 1128.86 411.827 1129.11 413.235C1129.36 414.644 1129.04 416.094 1128.23 417.274C1127.43 418.454 1126.18 419.268 1124.78 419.541C1119.48 420.481 1114.13 421.541 1108.85 422.541C1108.48 422.643 1108.11 422.703 1107.73 422.72L1107.76 422.68ZM1363.17 420.75C1362.83 420.749 1362.5 420.719 1362.17 420.66C1356.88 419.66 1351.51 418.73 1346.17 417.87C1344.74 417.638 1343.47 416.849 1342.62 415.676C1341.78 414.503 1341.43 413.042 1341.67 411.615C1341.9 410.189 1342.69 408.912 1343.86 408.068C1345.03 407.223 1346.49 406.878 1347.92 407.11C1353.31 407.98 1358.77 408.94 1364.15 409.94C1365.49 410.187 1366.69 410.925 1367.51 412.01C1368.33 413.094 1368.72 414.447 1368.59 415.803C1368.47 417.158 1367.84 418.417 1366.83 419.332C1365.82 420.248 1364.51 420.754 1363.15 420.75H1363.17ZM1155.23 414.82C1153.84 414.829 1152.5 414.304 1151.48 413.355C1150.46 412.406 1149.85 411.104 1149.76 409.716C1149.67 408.328 1150.12 406.958 1151.01 405.888C1151.89 404.818 1153.16 404.129 1154.54 403.96C1159.95 403.26 1165.46 402.62 1170.91 402.06C1172.33 401.943 1173.74 402.387 1174.84 403.298C1175.94 404.209 1176.63 405.513 1176.78 406.932C1176.93 408.35 1176.51 409.77 1175.62 410.886C1174.74 412.002 1173.45 412.725 1172.03 412.9C1166.67 413.46 1161.25 414.09 1155.93 414.77C1155.69 414.816 1155.44 414.846 1155.2 414.86L1155.23 414.82ZM1315.58 413.61C1315.37 413.625 1315.17 413.625 1314.96 413.61C1309.61 413.01 1304.19 412.46 1298.83 411.99C1298.12 411.925 1297.42 411.719 1296.79 411.386C1296.16 411.052 1295.59 410.597 1295.14 410.047C1294.68 409.496 1294.33 408.86 1294.12 408.177C1293.91 407.493 1293.83 406.774 1293.9 406.06C1293.97 405.347 1294.17 404.654 1294.5 404.021C1294.84 403.387 1295.29 402.825 1295.84 402.367C1296.39 401.91 1297.03 401.565 1297.71 401.352C1298.4 401.14 1299.12 401.065 1299.83 401.13C1305.27 401.61 1310.83 402.13 1316.23 402.78C1317.62 402.927 1318.9 403.603 1319.81 404.669C1320.72 405.735 1321.18 407.109 1321.1 408.506C1321.02 409.903 1320.41 411.217 1319.39 412.175C1318.37 413.132 1317.02 413.661 1315.62 413.65L1315.58 413.61ZM1203.14 410.41C1201.73 410.403 1200.37 409.846 1199.36 408.857C1198.35 407.868 1197.76 406.525 1197.72 405.111C1197.68 403.697 1198.19 402.323 1199.15 401.28C1200.1 400.237 1201.43 399.606 1202.84 399.52C1208.3 399.22 1213.84 398.98 1219.31 398.81C1220.04 398.766 1220.77 398.869 1221.45 399.112C1222.14 399.354 1222.77 399.733 1223.31 400.224C1223.85 400.715 1224.29 401.31 1224.59 401.972C1224.9 402.635 1225.06 403.352 1225.09 404.08C1225.11 404.809 1224.99 405.535 1224.72 406.215C1224.46 406.895 1224.06 407.516 1223.56 408.04C1223.05 408.564 1222.44 408.981 1221.77 409.266C1221.1 409.551 1220.38 409.699 1219.65 409.701C1214.26 409.871 1208.81 410.11 1203.45 410.41H1203.14ZM1267.61 409.93H1267.38C1262.01 409.71 1256.55 409.56 1251.17 409.47C1249.72 409.459 1248.34 408.873 1247.33 407.842C1246.32 406.812 1245.75 405.421 1245.77 403.975C1245.78 402.53 1246.36 401.149 1247.39 400.135C1248.42 399.121 1249.81 398.559 1251.26 398.57H1251.35C1256.82 398.66 1262.35 398.81 1267.82 399.04C1269.23 399.122 1270.55 399.744 1271.51 400.779C1272.46 401.813 1272.98 403.177 1272.96 404.587C1272.93 405.996 1272.36 407.339 1271.36 408.336C1270.36 409.332 1269.02 409.904 1267.61 409.93Z" fill="#2E77E6"/>
<path d="M1530.38 240.62H1292.81V537.16H1530.38V240.62Z" fill="#296ACC"/>
<path d="M1561.19 271.24H1323.62V567.78H1561.19V271.24Z" fill="white" stroke="#5896FA" stroke-width="7.92" stroke-miterlimit="10"/>
<path d="M1600.32 301.3H1362.75V597.84H1600.32V301.3Z" fill="white" stroke="#5896FA" stroke-width="7.92" stroke-miterlimit="10"/>
<path d="M1628.78 331.92H1391.21V628.46H1628.78V331.92Z" fill="#5896FA"/>
<path d="M1591.83 380.61H1468.94V399.9H1591.83V380.61Z" fill="#005CEA"/>
<path d="M1591.82 425.92H1432.59V445.21H1591.82V425.92Z" fill="#005CEA"/>
<path d="M1591.82 471.23H1432.59V490.52H1591.82V471.23Z" fill="#005CEA"/>
<path d="M1591.82 516.55H1432.59V535.84H1591.82V516.55Z" fill="#005CEA"/>
<path d="M1591.82 561.86H1432.59V581.15H1591.82V561.86Z" fill="#005CEA"/>
<path d="M830.965 622.726C863.734 589.957 863.734 536.828 830.965 504.059C798.196 471.29 745.067 471.29 712.298 504.059C679.529 536.828 679.529 589.957 712.298 622.726C745.067 655.495 798.196 655.495 830.965 622.726Z" fill="#AAE0FF"/>
<path d="M904 643.18C914.592 625.677 921.588 606.238 924.58 586L930.83 586.92L943.17 588.73H943.33C946.65 566.4 945.549 543.635 940.09 521.73L921.73 526.27C916.804 506.391 907.966 487.693 895.73 471.27L911 459.94C897.57 441.76 880.684 426.41 861.31 414.77L851.48 431C833.97 420.404 814.519 413.414 794.27 410.44L797 391.71C774.665 388.437 751.907 389.555 730 395L734.55 413.36C714.669 418.28 695.97 427.12 679.55 439.36L668.24 424.14C650.061 437.568 634.714 454.454 623.08 473.83L639.33 483.63C628.738 501.146 621.748 520.599 618.77 540.85L605.5 538.9L600.08 538.15H600.02C596.731 560.481 597.832 583.24 603.26 605.15L621.62 600.6C626.554 620.476 635.392 639.172 647.62 655.6L632.4 666.92C645.823 685.074 662.703 700.395 682.07 712L691.87 695.74C709.404 706.349 728.877 713.356 749.15 716.35L747 730.89L746.41 735.07C768.744 738.354 791.504 737.24 813.41 731.79L808.86 713.43C828.749 708.472 847.463 699.636 863.93 687.43L875.24 702.65C893.354 689.203 908.656 672.334 920.28 653L904 643.18ZM728.32 635.24C714.107 626.679 702.751 614.096 695.69 599.081C688.628 584.066 686.178 567.295 688.649 550.888C691.119 534.48 698.399 519.174 709.569 506.905C720.739 494.635 735.296 485.953 751.4 481.958C767.504 477.962 784.431 478.831 800.041 484.456C815.651 490.08 829.242 500.207 839.097 513.557C848.951 526.906 854.625 542.877 855.401 559.451C856.178 576.026 852.023 592.458 843.46 606.67C831.981 625.723 813.405 639.436 791.816 644.794C770.228 650.151 747.395 646.715 728.34 635.24H728.32Z" fill="#005CEA"/>
<path d="M590 632.05C584.062 623.058 576.393 615.338 567.44 609.34L569.28 606.57L572.94 601.11V601.04C563.066 594.411 551.987 589.787 540.33 587.43L538.33 597.19C527.773 595.046 516.895 595.026 506.33 597.13L504.39 587.33C492.712 589.611 481.6 594.175 471.69 600.76L477.2 609.09C468.205 615.029 460.485 622.702 454.49 631.66L446.2 626.11C439.58 635.992 434.957 647.073 432.59 658.73L442.35 660.73C440.199 671.286 440.175 682.165 442.28 692.73L432.49 694.67C434.762 706.352 439.323 717.468 445.91 727.38L454.25 721.86C460.183 730.857 467.853 738.578 476.81 744.57L472.88 750.44L471.3 752.85C481.181 759.463 492.258 764.082 503.91 766.45L505.91 756.69C516.471 758.815 527.349 758.815 537.91 756.69L539.85 766.49C551.517 764.216 562.62 759.659 572.52 753.08L567 744.81C576.004 738.864 583.735 731.185 589.74 722.22L596.18 726.54L598.03 727.76C604.638 717.886 609.251 706.815 611.61 695.17L601.85 693.17C603.982 682.589 604.009 671.692 601.93 661.1L611.72 659.16C609.42 647.504 604.857 636.411 598.29 626.51L590 632.05ZM546.52 713.8C539.233 718.618 530.681 721.167 521.945 721.125C513.21 721.083 504.683 718.452 497.443 713.563C490.202 708.675 484.574 701.75 481.27 693.663C477.966 685.576 477.134 676.691 478.879 668.132C480.624 659.572 484.868 651.722 491.075 645.574C497.281 639.427 505.171 635.258 513.747 633.594C522.323 631.93 531.2 632.847 539.255 636.229C547.31 639.61 554.181 645.304 559 652.59C562.2 657.429 564.416 662.85 565.52 668.545C566.625 674.239 566.597 680.096 565.438 685.78C564.279 691.464 562.012 696.864 558.766 701.672C555.52 706.479 551.359 710.601 546.52 713.8Z" fill="#1251B3"/>
<path d="M1962.29 671.271H1758.31C1754.01 671.271 1750.53 674.754 1750.53 679.05V794.781C1750.53 799.077 1754.01 802.56 1758.31 802.56H1962.29C1966.59 802.56 1970.07 799.077 1970.07 794.781V679.05C1970.07 674.754 1966.59 671.271 1962.29 671.271Z" fill="#005CEA"/>
<path d="M1970.07 696.061H1750.53V718.721H1970.07V696.061Z" fill="#5896FA"/>
<path d="M1800.82 777.37H1768.54C1767.56 777.37 1766.61 777.761 1765.92 778.457C1765.22 779.152 1764.83 780.096 1764.83 781.08C1764.83 782.065 1765.22 783.01 1765.92 783.707C1766.61 784.404 1767.56 784.797 1768.54 784.8H1800.82C1801.8 784.797 1802.75 784.404 1803.44 783.707C1804.14 783.01 1804.53 782.065 1804.53 781.08C1804.53 780.096 1804.14 779.152 1803.44 778.457C1802.75 777.761 1801.8 777.37 1800.82 777.37Z" fill="#D1F5FF"/>
<path d="M1850.46 777.37H1818.18C1817.2 777.37 1816.25 777.761 1815.55 778.456C1814.86 779.152 1814.46 780.095 1814.46 781.08C1814.46 782.066 1814.86 783.011 1815.55 783.708C1816.25 784.405 1817.19 784.797 1818.18 784.8H1850.46C1851.44 784.797 1852.39 784.404 1853.08 783.707C1853.78 783.01 1854.17 782.065 1854.17 781.08C1854.17 780.096 1853.78 779.152 1853.08 778.457C1852.39 777.761 1851.44 777.37 1850.46 777.37Z" fill="#D1F5FF"/>
<path d="M1900.1 777.37H1867.82C1866.84 777.37 1865.89 777.761 1865.19 778.456C1864.5 779.152 1864.1 780.095 1864.1 781.08C1864.1 782.066 1864.5 783.011 1865.19 783.708C1865.89 784.405 1866.83 784.797 1867.82 784.8H1900.1C1901.08 784.797 1902.03 784.404 1902.72 783.707C1903.42 783.01 1903.81 782.065 1903.81 781.08C1903.81 780.096 1903.42 779.152 1902.72 778.457C1902.03 777.761 1901.08 777.37 1900.1 777.37Z" fill="#D1F5FF"/>
<path d="M1949.74 777.37H1917.46C1916.48 777.37 1915.53 777.761 1914.83 778.456C1914.14 779.152 1913.74 780.095 1913.74 781.08C1913.74 782.066 1914.14 783.011 1914.83 783.708C1915.53 784.405 1916.47 784.797 1917.46 784.8H1949.74C1950.72 784.797 1951.67 784.404 1952.36 783.707C1953.06 783.01 1953.45 782.065 1953.45 781.08C1953.45 780.096 1953.06 779.152 1952.36 778.457C1951.67 777.761 1950.72 777.37 1949.74 777.37Z" fill="#D1F5FF"/>
<path d="M1767.05 677.931C1765.96 677.931 1764.92 678.363 1764.15 679.132C1763.38 679.9 1762.95 680.943 1762.95 682.031V683.471C1762.95 684.557 1763.39 685.599 1764.15 686.367C1764.92 687.135 1765.96 687.568 1767.05 687.571C1768.14 687.571 1769.18 687.139 1769.95 686.37C1770.72 685.601 1771.15 684.558 1771.15 683.471V682.001C1771.14 680.918 1770.71 679.881 1769.94 679.118C1769.17 678.355 1768.13 677.928 1767.05 677.931Z" fill="#D1F5FF"/>
<path d="M1775.89 682.751C1775.89 683.384 1776.01 684.01 1776.26 684.595C1776.5 685.18 1776.85 685.711 1777.3 686.159C1777.75 686.607 1778.28 686.962 1778.87 687.204C1779.45 687.446 1780.08 687.571 1780.71 687.571H1797.79C1798.42 687.571 1799.05 687.446 1799.63 687.204C1800.22 686.962 1800.75 686.607 1801.2 686.159C1801.65 685.711 1802 685.18 1802.24 684.595C1802.49 684.01 1802.61 683.384 1802.61 682.751C1802.61 681.472 1802.1 680.246 1801.2 679.342C1800.29 678.438 1799.07 677.931 1797.79 677.931H1780.71C1779.43 677.931 1778.21 678.438 1777.3 679.342C1776.4 680.246 1775.89 681.472 1775.89 682.751Z" fill="#D1F5FF"/>
<path d="M1795.72 730.9H1773.64C1770.11 730.9 1767.24 733.766 1767.24 737.3V756.33C1767.24 759.865 1770.11 762.73 1773.64 762.73H1795.72C1799.25 762.73 1802.12 759.865 1802.12 756.33V737.3C1802.12 733.766 1799.25 730.9 1795.72 730.9Z" fill="#5896FA"/>
<path d="M1865.73 1159.55V1144.11C1865.73 1142.44 1865.4 1140.79 1864.77 1139.25C1864.13 1137.71 1863.2 1136.31 1862.02 1135.13C1860.84 1133.95 1859.44 1133.02 1857.9 1132.38C1856.36 1131.74 1854.71 1131.41 1853.04 1131.41H1717.85C1714.48 1131.41 1711.25 1132.75 1708.87 1135.13C1706.49 1137.51 1705.15 1140.74 1705.15 1144.11V1417.11H2054.84V1159.55H1865.73Z" fill="#1251B3"/>
<path d="M2069.37 1168.93H1726.47L1705.15 1417.13H2053.13L2069.37 1168.93Z" fill="white"/>
<path d="M2054.84 1417.13H1705.15L1742.26 1172C1742.78 1168.53 1744.53 1165.36 1747.19 1163.07C1749.86 1160.78 1753.25 1159.53 1756.76 1159.53H2076.76C2078.87 1159.53 2080.96 1159.99 2082.88 1160.87C2084.79 1161.75 2086.5 1163.03 2087.88 1164.63C2089.25 1166.24 2090.27 1168.11 2090.85 1170.14C2091.44 1172.17 2091.58 1174.3 2091.26 1176.39L2054.84 1417.13Z" fill="#3383FF"/>
<path d="M2091.44 1249.05C2135.69 1249.05 2171.56 1213.18 2171.56 1168.93C2171.56 1124.68 2135.69 1088.81 2091.44 1088.81C2047.19 1088.81 2011.32 1124.68 2011.32 1168.93C2011.32 1213.18 2047.19 1249.05 2091.44 1249.05Z" fill="#005CEA"/>
<path d="M2091.45 1252C2075.02 1252 2058.96 1247.13 2045.3 1238C2031.65 1228.88 2021 1215.9 2014.71 1200.73C2008.43 1185.55 2006.78 1168.85 2009.99 1152.74C2013.19 1136.62 2021.1 1121.82 2032.72 1110.21C2044.33 1098.59 2059.13 1090.68 2075.25 1087.48C2091.36 1084.27 2108.06 1085.92 2123.24 1092.2C2138.41 1098.49 2151.39 1109.14 2160.51 1122.79C2169.64 1136.45 2174.51 1152.51 2174.51 1168.94C2174.48 1190.96 2165.72 1212.07 2150.15 1227.64C2134.58 1243.21 2113.47 1251.97 2091.45 1252ZM2091.45 1091.75C2076.18 1091.75 2061.25 1096.27 2048.56 1104.76C2035.86 1113.24 2025.96 1125.3 2020.12 1139.4C2014.27 1153.51 2012.74 1169.03 2015.72 1184.01C2018.7 1198.98 2026.05 1212.74 2036.85 1223.54C2047.65 1234.34 2061.41 1241.69 2076.38 1244.67C2091.36 1247.65 2106.88 1246.12 2120.99 1240.27C2135.09 1234.43 2147.15 1224.53 2155.63 1211.83C2164.12 1199.14 2168.64 1184.21 2168.64 1168.94C2168.62 1148.47 2160.48 1128.85 2146.01 1114.38C2131.54 1099.9 2111.92 1091.76 2091.45 1091.74V1091.75Z" fill="white"/>
<path d="M2052.88 1154.44V1211.17C2052.88 1217.49 2130.01 1217.49 2130.01 1211.17V1154.44H2052.88ZM2095.35 1184.56V1200.64C2095.35 1201.67 2094.94 1202.67 2094.21 1203.4C2093.48 1204.13 2092.48 1204.54 2091.45 1204.54C2090.42 1204.54 2089.42 1204.13 2088.69 1203.4C2087.96 1202.67 2087.55 1201.67 2087.55 1200.64V1184.53C2085.57 1183.64 2083.95 1182.09 2082.97 1180.15C2081.99 1178.21 2081.71 1176 2082.16 1173.87C2082.62 1171.75 2083.79 1169.84 2085.48 1168.48C2087.17 1167.11 2089.28 1166.37 2091.45 1166.37C2093.62 1166.37 2095.73 1167.11 2097.42 1168.48C2099.11 1169.84 2100.28 1171.75 2100.74 1173.87C2101.19 1176 2100.91 1178.21 2099.93 1180.15C2098.95 1182.09 2097.33 1183.64 2095.35 1184.53V1184.56Z" fill="white"/>
<path d="M2123.26 1150.39H2115.45V1146.57C2115.45 1140.2 2112.92 1134.1 2108.42 1129.6C2103.92 1125.1 2097.82 1122.57 2091.45 1122.57C2085.08 1122.57 2078.98 1125.1 2074.48 1129.6C2069.98 1134.1 2067.45 1140.2 2067.45 1146.57V1150.39H2059.64V1146.57C2059.64 1138.13 2062.99 1130.04 2068.96 1124.08C2074.92 1118.11 2083.01 1114.76 2091.45 1114.76C2099.89 1114.76 2107.98 1118.11 2113.94 1124.08C2119.91 1130.04 2123.26 1138.13 2123.26 1146.57V1150.39Z" fill="white"/>
<path d="M608.1 1070.62L607.81 1070.32C568.56 1112.32 505.93 1146.83 438.9 1161.51C438.9 1165.98 438.77 1190.78 438.26 1305.1C437.58 1457.58 582.7 1532.1 605.26 1543.54C539 1275.6 590.89 1113.54 608.1 1070.62Z" fill="#2E77E6"/>
<path d="M608.1 1070.62C590.89 1113.54 539.04 1275.62 605.23 1543.54C627.06 1533.54 774.02 1459.09 774.7 1306.6C775.21 1192.29 775.32 1167.49 775.34 1163.01C708.61 1147.77 647 1112.88 608.1 1070.62Z" fill="#2E77E6"/>
<path d="M608.1 1070.62L607.81 1070.32C568.56 1112.32 505.93 1146.83 438.9 1161.51C438.9 1165.98 438.77 1190.78 438.26 1305.1C437.58 1457.58 582.7 1532.1 605.26 1543.54C627.09 1533.54 774.05 1459.09 774.73 1306.6C775.24 1192.29 775.35 1167.49 775.37 1163.01C708.61 1147.77 647 1112.88 608.1 1070.62Z" stroke="white" stroke-width="11.86" stroke-miterlimit="10"/>
<path d="M607.58 1515.25L602.87 1514.98C574.94 1500.3 549.33 1481.57 526.87 1459.41C481.8 1414.55 459.08 1362.75 459.34 1305.41L459.91 1179.15L464.15 1178.05C518.38 1164.05 567.85 1138.39 603.45 1105.73L607.45 1102.05L611.3 1105.9L607.59 1110.2L611.46 1106.04C646.76 1138.9 695.89 1164.92 749.8 1179.34L754.03 1180.45L753.46 1306.71C753.2 1364.04 730.03 1415.64 684.58 1460.08C662.479 1481.47 637.436 1499.59 610.21 1513.9L607.58 1515.25ZM471.21 1188L470.69 1305.51C470.45 1359.69 492.04 1408.77 534.86 1451.39C555.807 1472.07 579.601 1489.64 605.52 1503.59C631.547 1489.85 655.49 1472.48 676.63 1452C719.83 1409.74 741.86 1360.85 742.1 1306.69L742.62 1189.16C690.37 1174.56 642.62 1149.33 607.24 1117.6C571.59 1149 523.64 1173.78 471.21 1188Z" fill="#4D94FF"/>
<path d="M539.6 1284.4V1384.49C539.6 1395.64 675.68 1395.64 675.68 1384.49V1284.4H539.6ZM614.53 1337.55V1365.92C614.565 1366.85 614.413 1367.77 614.083 1368.64C613.753 1369.5 613.252 1370.29 612.609 1370.96C611.966 1371.63 611.195 1372.16 610.342 1372.52C609.489 1372.89 608.572 1373.07 607.645 1373.07C606.718 1373.07 605.801 1372.89 604.948 1372.52C604.095 1372.16 603.324 1371.63 602.681 1370.96C602.038 1370.29 601.537 1369.5 601.207 1368.64C600.877 1367.77 600.725 1366.85 600.76 1365.92V1337.49C597.278 1335.9 594.445 1333.17 592.735 1329.74C591.025 1326.32 590.54 1322.41 591.362 1318.67C592.183 1314.93 594.261 1311.59 597.25 1309.19C600.238 1306.8 603.956 1305.51 607.784 1305.52C611.612 1305.54 615.319 1306.87 618.287 1309.29C621.254 1311.7 623.303 1315.07 624.092 1318.81C624.881 1322.56 624.362 1326.46 622.622 1329.87C620.882 1333.28 618.026 1335.99 614.53 1337.55Z" fill="white"/>
<path d="M663.77 1277.27H650V1270.53C650 1259.3 645.538 1248.53 637.596 1240.58C629.654 1232.64 618.882 1228.18 607.65 1228.18C596.418 1228.18 585.646 1232.64 577.704 1240.58C569.762 1248.53 565.3 1259.3 565.3 1270.53V1277.27H551.52V1270.53C551.421 1263.1 552.799 1255.72 555.575 1248.82C558.351 1241.93 562.47 1235.65 567.691 1230.36C572.913 1225.07 579.133 1220.86 585.992 1218C592.851 1215.13 600.211 1213.65 607.645 1213.65C615.079 1213.65 622.439 1215.13 629.298 1218C636.157 1220.86 642.377 1225.07 647.599 1230.36C652.82 1235.65 656.939 1241.93 659.715 1248.82C662.491 1255.72 663.869 1263.1 663.77 1270.53V1277.27Z" fill="white"/>
<path d="M1449.2 942.85C1453.12 914.132 1446.48 884.967 1430.5 860.782C1414.53 836.597 1390.31 819.039 1362.36 811.376C1334.41 803.712 1304.62 806.465 1278.55 819.122C1252.47 831.778 1231.88 853.477 1220.61 880.18C1208.59 869.447 1193.72 862.424 1177.79 859.958C1161.86 857.493 1145.57 859.69 1130.86 866.285C1116.16 872.88 1103.68 883.591 1094.93 897.124C1086.18 910.657 1081.53 926.434 1081.55 942.55H1066C1044.62 942.613 1024.13 951.135 1009.01 966.254C993.895 981.372 985.373 1001.86 985.31 1023.24C985.373 1044.62 993.895 1065.11 1009.01 1080.23C1024.13 1095.35 1044.62 1103.87 1066 1103.93H1443.3C1464.68 1103.87 1485.17 1095.35 1500.29 1080.23C1515.41 1065.11 1523.93 1044.62 1523.99 1023.24C1523.94 980.87 1490.82 945.94 1449.2 942.85Z" fill="white"/>
<path d="M1253.76 1094.64L1211.66 1047.48L1169.55 1094.64H1191.95V1146.1H1231.37V1094.64H1253.76Z" fill="#66B8FF"/>
<path d="M1247.36 1107.18L1289.46 1154.34L1331.57 1107.18H1309.17V1055.72H1269.75V1107.18H1247.36Z" fill="#66B8FF"/>
<path d="M2091.14 834.666C2093.12 826.292 2087.93 817.901 2079.56 815.924C2071.18 813.948 2062.79 819.134 2060.81 827.508C2058.84 835.883 2064.02 844.274 2072.4 846.251C2080.77 848.227 2089.16 843.041 2091.14 834.666Z" fill="white"/>
<path d="M782.728 856.128C784.691 847.75 779.491 839.367 771.114 837.404C762.736 835.44 754.353 840.64 752.39 849.018C750.426 857.395 755.626 865.778 764.003 867.742C772.381 869.705 780.764 864.505 782.728 856.128Z" fill="white"/>
<path d="M666.013 1684.3C667.976 1675.92 662.776 1667.54 654.399 1665.58C646.021 1663.61 637.638 1668.81 635.675 1677.19C633.711 1685.57 638.911 1693.95 647.288 1695.92C655.666 1697.88 664.049 1692.68 666.013 1684.3Z" fill="white"/>
<path d="M1697.75 1019.92C1697.07 1019.92 1696.4 1019.79 1695.78 1019.53C1695.15 1019.27 1694.58 1018.89 1694.1 1018.41C1693.62 1017.93 1693.24 1017.36 1692.98 1016.74C1692.72 1016.11 1692.59 1015.44 1692.59 1014.76V959.511C1692.59 958.833 1692.72 958.162 1692.98 957.536C1693.24 956.91 1693.62 956.341 1694.1 955.862C1694.58 955.383 1695.15 955.003 1695.78 954.743C1696.4 954.484 1697.07 954.351 1697.75 954.351C1699.12 954.351 1700.43 954.894 1701.4 955.862C1702.37 956.83 1702.91 958.142 1702.91 959.511V1014.76C1702.91 1016.13 1702.37 1017.44 1701.4 1018.41C1700.43 1019.38 1699.12 1019.92 1697.75 1019.92Z" fill="white"/>
<path d="M1665 987.131C1665 985.762 1665.54 984.45 1666.51 983.482C1667.48 982.514 1668.79 981.971 1670.16 981.971H1725.41C1726.78 981.971 1728.09 982.514 1729.06 983.482C1730.03 984.45 1730.57 985.762 1730.57 987.131C1730.57 988.499 1730.03 989.812 1729.06 990.779C1728.09 991.747 1726.78 992.291 1725.41 992.291H1670.16C1668.79 992.291 1667.48 991.747 1666.51 990.779C1665.54 989.812 1665 988.499 1665 987.131Z" fill="white"/>
<path d="M1731.44 1686.37C1730.07 1686.37 1728.76 1685.83 1727.79 1684.86C1726.82 1683.89 1726.28 1682.58 1726.28 1681.21V1626C1726.28 1624.63 1726.82 1623.32 1727.79 1622.35C1728.76 1621.38 1730.07 1620.84 1731.44 1620.84C1732.81 1620.84 1734.12 1621.38 1735.09 1622.35C1736.06 1623.32 1736.61 1624.63 1736.61 1626V1681.26C1736.59 1682.62 1736.04 1683.92 1735.07 1684.88C1734.11 1685.83 1732.8 1686.37 1731.44 1686.37Z" fill="white"/>
<path d="M1698.66 1653.58C1698.66 1652.21 1699.2 1650.9 1700.17 1649.93C1701.14 1648.96 1702.45 1648.42 1703.82 1648.42H1759.07C1760.44 1648.42 1761.75 1648.96 1762.72 1649.93C1763.69 1650.9 1764.23 1652.21 1764.23 1653.58C1764.23 1654.95 1763.69 1656.26 1762.72 1657.23C1761.75 1658.2 1760.44 1658.74 1759.07 1658.74H1703.82C1702.45 1658.74 1701.14 1658.2 1700.17 1657.23C1699.2 1656.26 1698.66 1654.95 1698.66 1653.58Z" fill="white"/>
<path d="M312.17 1155.61C310.563 1155.61 309.021 1154.97 307.885 1153.84C306.748 1152.7 306.11 1151.16 306.11 1149.55V1084.67C306.113 1083.06 306.752 1081.52 307.888 1080.39C309.024 1079.25 310.564 1078.61 312.17 1078.61C313.777 1078.61 315.319 1079.25 316.455 1080.39C317.592 1081.52 318.23 1083.06 318.23 1084.67V1149.55C318.23 1151.16 317.592 1152.7 316.455 1153.84C315.319 1154.97 313.777 1155.61 312.17 1155.61Z" fill="white"/>
<path d="M273.67 1117.11C273.673 1115.5 274.312 1113.96 275.448 1112.83C276.584 1111.69 278.124 1111.05 279.73 1111.05H344.61C346.217 1111.05 347.759 1111.69 348.895 1112.83C350.032 1113.96 350.67 1115.5 350.67 1117.11C350.67 1118.72 350.032 1120.26 348.895 1121.4C347.759 1122.53 346.217 1123.17 344.61 1123.17H279.73C278.123 1123.17 276.581 1122.53 275.445 1121.4C274.309 1120.26 273.67 1118.72 273.67 1117.11Z" fill="white"/>
<path d="M980.6 332C979.213 332 977.883 331.449 976.902 330.468C975.921 329.488 975.37 328.157 975.37 326.77V270.77C975.37 269.382 975.921 268.051 976.901 267.069C977.882 266.086 979.212 265.533 980.6 265.53C981.989 265.533 983.32 266.086 984.302 267.068C985.284 268.05 985.837 269.381 985.84 270.77V326.77C985.837 328.158 985.284 329.489 984.302 330.469C983.319 331.45 981.988 332 980.6 332Z" fill="#2E76E6"/>
<path d="M947.35 298.701C947.353 297.313 947.906 295.982 948.888 295.002C949.871 294.021 951.202 293.471 952.59 293.471H1008.59C1009.98 293.471 1011.31 294.022 1012.29 295.003C1013.27 295.983 1013.82 297.314 1013.82 298.701C1013.82 300.089 1013.27 301.42 1012.29 302.402C1011.31 303.385 1009.98 303.938 1008.59 303.941H952.59C951.201 303.938 949.87 303.385 948.888 302.403C947.906 301.421 947.353 300.09 947.35 298.701Z" fill="#2E76E6"/>
<path d="M1130.37 310.47C1129 310.47 1127.69 309.927 1126.72 308.959C1125.75 307.991 1125.21 306.679 1125.21 305.31V250.06C1125.21 248.692 1125.75 247.379 1126.72 246.412C1127.69 245.444 1129 244.9 1130.37 244.9C1131.05 244.9 1131.72 245.034 1132.34 245.293C1132.97 245.552 1133.54 245.933 1134.02 246.412C1134.5 246.891 1134.88 247.46 1135.14 248.086C1135.4 248.712 1135.53 249.383 1135.53 250.06V305.31C1135.53 305.988 1135.4 306.659 1135.14 307.285C1134.88 307.911 1134.5 308.48 1134.02 308.959C1133.54 309.438 1132.97 309.818 1132.34 310.078C1131.72 310.337 1131.05 310.47 1130.37 310.47Z" fill="#AAE0FF"/>
<path d="M1097.59 277.681C1097.59 277.003 1097.72 276.332 1097.98 275.706C1098.24 275.08 1098.62 274.511 1099.1 274.032C1099.58 273.553 1100.15 273.173 1100.78 272.913C1101.4 272.654 1102.07 272.521 1102.75 272.521H1158C1159.37 272.521 1160.68 273.064 1161.65 274.032C1162.62 275 1163.16 276.312 1163.16 277.681C1163.16 279.049 1162.62 280.362 1161.65 281.329C1160.68 282.297 1159.37 282.841 1158 282.841H1102.75C1102.07 282.841 1101.4 282.707 1100.78 282.448C1100.15 282.188 1099.58 281.808 1099.1 281.329C1098.62 280.85 1098.24 280.281 1097.98 279.655C1097.72 279.029 1097.59 278.358 1097.59 277.681Z" fill="#AAE0FF"/>
<path d="M1830.51 524.79C1846.96 524.79 1860.29 511.458 1860.29 495.01C1860.29 478.563 1846.96 465.23 1830.51 465.23C1814.06 465.23 1800.73 478.563 1800.73 495.01C1800.73 511.458 1814.06 524.79 1830.51 524.79Z" fill="#AAE0FF"/>
<path d="M1048.39 635.93C1064.84 635.93 1078.17 622.597 1078.17 606.15C1078.17 589.703 1064.84 576.37 1048.39 576.37C1031.94 576.37 1018.61 589.703 1018.61 606.15C1018.61 622.597 1031.94 635.93 1048.39 635.93Z" fill="#AAE0FF"/>
<path d="M652.41 1629.55C668.857 1629.55 682.19 1616.22 682.19 1599.77C682.19 1583.32 668.857 1569.99 652.41 1569.99C635.963 1569.99 622.63 1583.32 622.63 1599.77C622.63 1616.22 635.963 1629.55 652.41 1629.55Z" fill="#AAE0FF"/>
<mask id="mask0_1101_3" style="mask-type:luminance" maskUnits="userSpaceOnUse" x="0" y="0" width="2500" height="2500">
<path d="M2500 0H0V2500H2500V0Z" fill="white"/>
</mask>
<g mask="url(#mask0_1101_3)">
<path d="M995.91 1731.81L808.43 1978.31C785.17 2074.31 837.82 2160.69 936.97 2183.43L1372.89 1983.61L995.91 1731.81Z" fill="#FFA04D"/>
<path d="M853.46 1885.48L-156.34 2409.39C-224.93 2442.18 27.49 2789.31 288.99 2678.39L950.43 2176.39C1080.35 2133.15 983.38 1842.18 853.46 1885.48Z" fill="#FFA04D"/>
<path d="M1015 1776.29C1015 1776.29 1557.86 1366.57 1605.82 1446.29C1660.76 1537.6 1087.43 1890.18 1087.43 1890.18L1015 1776.29Z" fill="#FFA04D"/>
<path d="M1041.6 2206.28L1432.6 2203.92C1457 2203.77 1476.73 2182.92 1476.69 2157.47L1475.22 1312.12C1475.22 1287.54 1455.75 1267.57 1431.83 1267.49L1048.41 1266.33C1024.29 1266.25 1004.57 1286.2 1004.41 1310.89L997.41 2160.15C997.22 2185.76 1017 2206.43 1041.6 2206.28Z" fill="white"/>
<path d="M1036.2 2200.13C1037.84 2200.33 1039.49 2200.43 1041.14 2200.42L1432.03 2197.65C1453.03 2197.5 1470.13 2179.26 1470.1 2157.01L1468.75 1312.59C1468.75 1291.12 1451.85 1273.59 1431.28 1273.52L1047.89 1272C1047.29 1272 1046.69 1272 1046.09 1272C1036.44 1272.42 1027.33 1276.57 1020.69 1283.58C1013.78 1290.83 1009.92 1300.45 1009.89 1310.46L1003 2160.58C1002.87 2180.72 1017.08 2197.73 1036.2 2200.13Z" fill="#33201B"/>
<path d="M1023.39 1316.62L1016.8 2163.77L1457.16 2161.3L1456.03 1316.62H1023.39Z" fill="white"/>
<path d="M1323.34 1828.64H1381.1V1770.88H1323.34V1828.64Z" stroke="#007880" stroke-width="4.94" stroke-miterlimit="10"/>
<path d="M1247.22 1828.64H1304.98V1770.88H1247.22V1828.64Z" stroke="#007880" stroke-width="4.94" stroke-miterlimit="10"/>
<path d="M1171.09 1828.64H1228.85V1770.88H1171.09V1828.64Z" stroke="#007880" stroke-width="4.94" stroke-miterlimit="10"/>
<path d="M1094.95 1828.64H1152.71V1770.88H1094.95V1828.64Z" stroke="#007880" stroke-width="4.94" stroke-miterlimit="10"/>
<path d="M1352.83 1812.89C1359.44 1812.89 1364.79 1807.54 1364.79 1800.93C1364.79 1794.33 1359.44 1788.97 1352.83 1788.97C1346.22 1788.97 1340.87 1794.33 1340.87 1800.93C1340.87 1807.54 1346.22 1812.89 1352.83 1812.89Z" fill="#4D4D4D"/>
<path d="M1276.54 1812.89C1283.15 1812.89 1288.5 1807.54 1288.5 1800.93C1288.5 1794.33 1283.15 1788.97 1276.54 1788.97C1269.93 1788.97 1264.58 1794.33 1264.58 1800.93C1264.58 1807.54 1269.93 1812.89 1276.54 1812.89Z" fill="#4D4D4D"/>
<path d="M1200.25 1812.89C1206.86 1812.89 1212.21 1807.54 1212.21 1800.93C1212.21 1794.33 1206.86 1788.97 1200.25 1788.97C1193.64 1788.97 1188.29 1794.33 1188.29 1800.93C1188.29 1807.54 1193.64 1812.89 1200.25 1812.89Z" fill="#4D4D4D"/>
<path d="M1122.59 1812.89C1129.2 1812.89 1134.55 1807.54 1134.55 1800.93C1134.55 1794.33 1129.2 1788.97 1122.59 1788.97C1115.98 1788.97 1110.63 1794.33 1110.63 1800.93C1110.63 1807.54 1115.98 1812.89 1122.59 1812.89Z" fill="#4D4D4D"/>
<path d="M1213.72 1517.93V1506.36C1213.72 1503.84 1212.72 1501.42 1210.93 1499.64C1209.15 1497.85 1206.73 1496.85 1204.21 1496.85H1103C1100.48 1496.85 1098.06 1497.85 1096.28 1499.64C1094.49 1501.42 1093.49 1503.84 1093.49 1506.36V1710.84H1355.39V1517.93H1213.72Z" fill="white"/>
<path d="M1214.56 1517.93V1506.36C1214.56 1503.84 1213.56 1501.42 1211.77 1499.64C1209.99 1497.85 1207.57 1496.85 1205.05 1496.85H1103.8C1101.28 1496.85 1098.86 1497.85 1097.08 1499.64C1095.29 1501.42 1094.29 1503.84 1094.29 1506.36V1710.84H1356.19V1517.93H1214.56Z" fill="#BFE1FF"/>
<path d="M1216.92 1517.86V1506.29C1216.92 1503.77 1215.92 1501.35 1214.13 1499.57C1212.35 1497.78 1209.93 1496.78 1207.41 1496.78H1106.16C1103.64 1496.78 1101.22 1497.78 1099.44 1499.57C1097.65 1501.35 1096.65 1503.77 1096.65 1506.29V1710.77H1358.55V1517.86H1216.92Z" fill="#1A5280"/>
<path d="M1103.06 1525.92V1710.84H1345.67V1525.02L1103.06 1525.92Z" fill="white"/>
<path d="M1114.3 1525.92V1710.84H1358.99V1525.02L1114.3 1525.92Z" fill="#1480CC"/>
<path d="M1368.69 1517.93H1127.43C1125.17 1517.87 1122.97 1518.65 1121.25 1520.11C1119.53 1521.58 1118.42 1523.63 1118.12 1525.87V1710.87H1381.43V1530.56C1381.49 1523.92 1375.46 1517.93 1368.69 1517.93Z" fill="#BFE1FF"/>
<path d="M1335.99 1467.13L1157.93 1467.63L1158.31 1602.95L1336.37 1602.45L1335.99 1467.13Z" fill="#CCE7FF"/>
<path d="M1327.27 1475.29H1158.31V1599.69H1327.27V1475.29Z" fill="#3397FF"/>
<path d="M1177.01 1586.4L1285.59 1586.1L1226.22 1529.15L1177.01 1586.4Z" fill="#E3EEFF"/>
<path d="M1226.38 1586.27L1317.61 1586.01L1268.11 1538.94L1226.38 1586.27Z" fill="#E3EEFF"/>
<path d="M1269.03 1525.37C1273.93 1520.46 1273.93 1512.5 1269.03 1507.59C1264.12 1502.68 1256.16 1502.68 1251.25 1507.59C1246.34 1512.5 1246.34 1520.46 1251.25 1525.37C1256.16 1530.28 1264.12 1530.28 1269.03 1525.37Z" fill="#E3EEFF"/>
<path d="M1363.56 1436.1L1198.48 1436.62L1198.93 1580.18L1364.01 1579.66L1363.56 1436.1Z" fill="#CCE7FF"/>
<path d="M1358.76 1440.82L1203.05 1441.31L1203.47 1573.29L1359.17 1572.8L1358.76 1440.82Z" fill="#198AFF"/>
<path d="M1280.48 1459.44H1218.47V1464.89H1280.48V1459.44Z" fill="#CCE5FF"/>
<path d="M1344.63 1474.15H1218.47V1479.6H1344.63V1474.15Z" fill="#CCE5FF"/>
<path d="M1344.63 1489.13H1218.47V1494.58H1344.63V1489.13Z" fill="#CCE5FF"/>
<path d="M1344.63 1505.07H1218.47V1510.52H1344.63V1505.07Z" fill="#CCE5FF"/>
<path d="M1382.61 1530.59V1710.86H1121V1525.86C1121.31 1523.64 1122.42 1521.6 1124.13 1520.14C1125.84 1518.69 1128.02 1517.91 1130.27 1517.96H1369.93C1376.66 1517.94 1382.66 1523.89 1382.61 1530.59Z" fill="#66B8FF"/>
<path d="M1120.65 1708.37H1094.26V1710.85H1120.65V1708.37Z" fill="#BFE1FF"/>
<path d="M1284.83 1606.21C1288.31 1584.73 1273.73 1564.49 1252.25 1561.01C1230.77 1557.52 1210.53 1572.11 1207.05 1593.58C1203.56 1615.06 1218.14 1635.3 1239.62 1638.79C1261.1 1642.27 1281.34 1627.69 1284.83 1606.21Z" fill="white"/>
<path d="M1246 1598.39C1247.67 1598.38 1249.32 1597.99 1250.82 1597.25C1252.33 1596.52 1253.64 1595.45 1254.68 1594.14C1256.25 1592.18 1257.09 1589.75 1257.07 1587.24C1257.07 1584.29 1255.9 1581.47 1253.82 1579.38C1251.73 1577.3 1248.91 1576.13 1245.96 1576.13C1243.01 1576.13 1240.19 1577.3 1238.1 1579.38C1236.02 1581.47 1234.85 1584.29 1234.85 1587.24C1234.83 1589.75 1235.67 1592.19 1237.24 1594.14C1238.29 1595.46 1239.62 1596.53 1241.13 1597.27C1242.65 1598 1244.31 1598.39 1246 1598.39Z" fill="#275880"/>
<path d="M1265.55 1618.27C1265.55 1625.27 1226.24 1625.27 1226.24 1618.27V1610.06C1227.79 1598.85 1262.34 1598.38 1265.54 1610.06L1265.55 1618.27Z" fill="#275880"/>
<path d="M1310.59 1659.61H1181.2V1666.8H1310.59V1659.61Z" fill="white"/>
<path d="M1295.42 1674.54H1196.38V1681.73H1295.42V1674.54Z" fill="white"/>
<path d="M1291.24 1936.82H1380.58V1883.15H1291.24V1936.82Z" fill="#AAE0FF"/>
<path d="M1189.96 1936.82H1279.3V1883.15H1189.96V1936.82Z" fill="#AAE0FF"/>
<path d="M1088.68 1936.82H1178.02V1883.15H1088.68V1936.82Z" fill="#AAE0FF"/>
<path d="M1291.24 1999.98H1380.58V1946.31H1291.24V1999.98Z" fill="#AAE0FF"/>
<path d="M1189.96 1999.98H1279.3V1946.31H1189.96V1999.98Z" fill="#AAE0FF"/>
<path d="M1088.68 1999.98H1178.02V1946.31H1088.68V1999.98Z" fill="#AAE0FF"/>
<path d="M1291.24 2062.44H1380.58V2008.77H1291.24V2062.44Z" fill="#AAE0FF"/>
<path d="M1189.96 2062.44H1279.3V2008.77H1189.96V2062.44Z" fill="#AAE0FF"/>
<path d="M1189.96 2125.6H1279.3V2071.93H1189.96V2125.6Z" fill="#AAE0FF"/>
<path d="M1088.68 2062.44H1178.02V2008.77H1088.68V2062.44Z" fill="#AAE0FF"/>
<path d="M1476.7 1615.14C1476.7 1615.14 1592.53 1661.38 1519.22 1754.5C1445.91 1847.62 1408.09 1754.5 1450.96 1679.15C1466.79 1651.31 1476.7 1615.14 1476.7 1615.14Z" fill="#FFA04D"/>
<path d="M1476.7 1720.1C1476.7 1720.1 1592.53 1766.35 1519.22 1859.47C1445.91 1952.59 1408.09 1859.47 1450.96 1784.11C1466.79 1756.28 1476.7 1720.1 1476.7 1720.1Z" fill="#FFA04D"/>
<path d="M1479.23 1904.73C1479.23 1904.73 1569.6 1940.81 1512.41 2013.46C1455.22 2086.11 1425.71 2013.46 1459.15 1954.67C1471.51 1933 1479.23 1904.73 1479.23 1904.73Z" fill="#FFA04D"/>
<path d="M818.14 1965.64C880.58 1813.24 1016.81 1525.39 1016.81 1525.39C1016.81 1525.39 1052.81 1512.5 1065.1 1579.88C1077.39 1647.26 1018.61 1779 1018.61 1779C1018.61 1779 1097.4 2102.2 928.51 2127.11C811.19 2144.46 779.82 2029.07 818.14 1965.64Z" fill="#FFA04D"/>
<path d="M1453.06 2336.09C1453.06 2336.09 1206.82 1947.52 1242.57 1899.78C1278.32 1852.04 1565.34 2287.23 1565.34 2287.23L1453.06 2336.09Z" fill="#FFA04D"/>
<path d="M1360.21 2401.92C1383.33 2438.36 1620.21 2600.69 1620.21 2600.69C1812.61 2501.82 1480.1 2322.63 1480.1 2322.63C1480.1 2322.63 1550.63 2183.45 1479.01 2169.88C1426.73 2159.95 1395.43 2197.98 1382.36 2219.22C1380.56 2222.12 1379.11 2224.71 1377.99 2226.83C1376.1 2230.42 1375.17 2232.63 1375.17 2232.63C1375.17 2232.63 1337.09 2365.47 1360.21 2401.92Z" fill="#FFA04D"/>
<path d="M1428 2354.86L1452.78 2335.67L1622.23 2603.3L1852.86 2459.88C1852.86 2459.88 1782.35 2148.09 1745.86 2108.75C1709.37 2069.41 1661.2 2050.47 1661.2 2050.47C1617.44 2032.55 1602 2053.92 1582.44 2051C1537.78 2044.37 1517.65 2084.24 1504.85 2081.34C1490.24 2078.01 1471.42 2081.71 1455.5 2089.47C1448.84 2092.64 1442.65 2096.71 1437.09 2101.55H1437.04C1431.69 2106.27 1427.51 2111.55 1425.14 2117.15L1355.29 2141.88L1377.47 2206.88L1375.18 2207.49L1381 2217L1428 2354.86Z" fill="#FFA04D"/>
<path d="M1416.42 2335.68C1436.91 2394.82 1481.33 2382.78 1464.86 2348.04L1381.7 2220.33C1379.91 2223.23 1379.13 2224.71 1378.01 2226.83C1402.58 2264.84 1416.42 2335.68 1416.42 2335.68Z" fill="#CC6004"/>
<path d="M1634.24 2611.37C1904.35 2823.01 2060.65 2635.09 2045.29 2568.71L1828.74 2403.91L1569.93 2565.85L1634.24 2611.37Z" fill="#FFA04D"/>
</g>
</svg>
