<svg id="Layer_1" data-name="Layer 1" xmlns="http://www.w3.org/2000/svg" viewBox="0 0 751.77 891.21"><path d="M189.53,886.19C11.17,749.75-50.16,504.58,43.68,303.22,90.93,201.83,173.83,119.93,277.09,72.62A484.62,484.62,0,0,1,607.25,45.84L598.38,78C389.77,20.53,164.32,123.41,74,317.33-13.33,504.59,43.81,732.69,209.82,859.67Z"/><path d="M578.07,0c29.76,21.63,61.77,43.48,96.08,65.14q30.75,19.39,60.44,36.48a417.8,417.8,0,0,0-181.71,6.58L603.05,61Q590.56,30.52,578.07,0Z"/><path d="M648.5,890.24l-76.93-.72q-8.09-254.65-16.16-509.38-25.57,40-51,81.29Q418.57,601,345.8,736.3l-99.45-84.57q2.16,49.08,3.51,99.57,1.83,68.87,2,135.22l-63.94-.6Q187.24,718,186.59,550l147,101,288.6-531.18Q635.34,505,648.5,890.24Z"/><polygon points="751.77 891.21 664.84 890.39 633.65 119.45 735.71 117.32 751.77 891.21"/><path d="M288.8,886.84l-25.42-.24Q260.16,780,256.94,673.47l29.77,26Q287.76,793.16,288.8,886.84Z"/></svg>