<svg id="Layer_1" data-name="Layer 1" xmlns="http://www.w3.org/2000/svg" viewBox="0 0 1024 1024"><defs><style>.cls-1{fill:#020202;}.cls-2{fill:#fff;}</style></defs><rect class="cls-1" width="1024" height="1024"/><path class="cls-2" d="M325.64,952.59C147.29,816.15,86,571,179.8,369.62,227.05,268.22,309.94,186.33,413.2,139a484.69,484.69,0,0,1,330.16-26.79l-8.87,32.19c-208.6-57.49-434,45.38-524.43,239.3C122.78,571,179.92,799.08,345.93,926.07Z"/><path class="cls-2" d="M714.18,66.39C744,88,776,109.88,810.27,131.53Q841,150.93,870.71,168A418.08,418.08,0,0,0,689,174.6l50.18-47.19Z"/><path class="cls-2" d="M784.61,956.64l-76.93-.73q-8.08-254.65-16.16-509.37-25.57,40-51,81.28Q554.68,667.37,481.92,802.7l-99.46-84.57q2.16,49.07,3.52,99.56,1.83,68.88,2,135.23l-63.95-.6q-.66-168-1.31-335.9l147,101Q614,451.86,758.35,186.28,771.45,571.41,784.61,956.64Z"/><polygon class="cls-2" points="887.89 957.61 800.95 956.79 769.77 185.84 871.83 183.71 887.89 957.61"/><path class="cls-2" d="M424.92,953.24,399.49,953q-3.23-106.57-6.44-213.14l29.77,26Z"/></svg>